<svg width="17" height="12" viewBox="0 0 17 12" fill="none" xmlns="http://www.w3.org/2000/svg">
<path d="M16.5303 6.82623C16.8232 6.53334 16.8232 6.05846 16.5303 5.76557L11.7574 0.992599C11.4645 0.699705 10.9896 0.699705 10.6967 0.992599C10.4038 1.28549 10.4038 1.76037 10.6967 2.05326L14.9393 6.2959L10.6967 10.5385C10.4038 10.8314 10.4038 11.3063 10.6967 11.5992C10.9896 11.8921 11.4645 11.8921 11.7574 11.5992L16.5303 6.82623ZM-6.55671e-08 7.0459L16 7.0459L16 5.5459L6.55671e-08 5.5459L-6.55671e-08 7.0459Z" fill="url(#paint0_linear_6_177)"/>
<defs>
<linearGradient id="paint0_linear_6_177" x1="-4.37114e-08" y1="6.7959" x2="16" y2="6.7959" gradientUnits="userSpaceOnUse">
<stop stop-color="#042E26"/>
<stop offset="1" stop-color="#36D487"/>
</linearGradient>
</defs>
</svg>
