<svg width="80" height="56" viewBox="0 0 80 56" fill="none" xmlns="http://www.w3.org/2000/svg">
<circle cx="27.5" cy="28.0342" r="27.5" fill="#E9F9F1" fill-opacity="0.63"/>
<path d="M45.7532 3.53418H78.5005C78.7865 3.53418 79.0609 3.64782 79.2632 3.8501C79.4655 4.05239 79.5791 4.32674 79.5791 4.61281V37.3655C79.5791 37.6516 79.4655 37.9259 79.2632 38.1282C79.0609 38.3305 78.7865 38.4441 78.5005 38.4441H65.778C65.4919 38.4441 65.2176 38.3305 65.0153 38.1282C64.813 37.9259 64.6994 37.6516 64.6994 37.3655C64.6994 37.0794 64.813 36.8051 65.0153 36.6028C65.2176 36.4005 65.4919 36.2869 65.778 36.2869H77.411V5.7238H46.8534V17.3569C46.8534 17.6429 46.7397 17.9173 46.5374 18.1196C46.3352 18.3219 46.0608 18.4355 45.7747 18.4355C45.4887 18.4355 45.2143 18.3219 45.012 18.1196C44.8098 17.9173 44.6961 17.6429 44.6961 17.3569V4.61821C44.6961 4.33213 44.8098 4.05778 45.012 3.8555C45.2143 3.65321 45.4887 3.53957 45.7747 3.53957" fill="#042E26"/>
<path d="M58.9069 49.4187C58.7712 49.4187 58.6368 49.4455 58.5114 49.4976C58.3861 49.5497 58.2723 49.6261 58.1766 49.7223C58.0809 49.8185 58.0051 49.9327 57.9537 50.0583C57.9022 50.1839 57.8761 50.3185 57.8768 50.4542V51.4789H56.8521C56.5925 51.4977 56.3496 51.6141 56.1723 51.8047C55.995 51.9953 55.8965 52.246 55.8965 52.5063C55.8965 52.7666 55.995 53.0172 56.1723 53.2078C56.3496 53.3984 56.5925 53.5149 56.8521 53.5337H58.9069C59.1782 53.5323 59.438 53.4239 59.6299 53.232C59.8218 53.0401 59.9302 52.7803 59.9316 52.509V50.4542C59.9302 50.1829 59.8218 49.923 59.6299 49.7312C59.438 49.5393 59.1782 49.4309 58.9069 49.4295" fill="#042E26"/>
<path d="M49.307 51.4685H45.8985C45.6389 51.4873 45.396 51.6038 45.2187 51.7944C45.0414 51.985 44.9429 52.2356 44.9429 52.4959C44.9429 52.7562 45.0414 53.0069 45.2187 53.1975C45.396 53.3881 45.6389 53.5045 45.8985 53.5233H49.307C49.4481 53.5336 49.5899 53.5146 49.7234 53.4676C49.857 53.4206 49.9794 53.3466 50.083 53.2502C50.1866 53.1538 50.2693 53.037 50.3258 52.9073C50.3824 52.7775 50.4115 52.6375 50.4115 52.4959C50.4115 52.3544 50.3824 52.2143 50.3258 52.0846C50.2693 51.9548 50.1866 51.8381 50.083 51.7417C49.9794 51.6453 49.857 51.5712 49.7234 51.5242C49.5899 51.4773 49.4481 51.4583 49.307 51.4685Z" fill="#042E26"/>
<path d="M38.3534 51.4685H34.9449C34.8037 51.4583 34.662 51.4773 34.5284 51.5242C34.3949 51.5712 34.2725 51.6453 34.1689 51.7417C34.0652 51.8381 33.9826 51.9548 33.926 52.0846C33.8695 52.2143 33.8403 52.3544 33.8403 52.4959C33.8403 52.6375 33.8695 52.7775 33.926 52.9073C33.9826 53.037 34.0652 53.1538 34.1689 53.2502C34.2725 53.3466 34.3949 53.4206 34.5284 53.4676C34.662 53.5146 34.8037 53.5336 34.9449 53.5233H38.3534C38.613 53.5045 38.8559 53.3881 39.0332 53.1975C39.2105 53.0069 39.309 52.7562 39.309 52.4959C39.309 52.2356 39.2105 51.985 39.0332 51.7944C38.8559 51.6038 38.613 51.4873 38.3534 51.4685Z" fill="#042E26"/>
<path d="M28.0795 51.4685H27.0494V50.4546C27.0494 50.1829 26.9414 49.9222 26.7493 49.7301C26.5571 49.5379 26.2965 49.4299 26.0247 49.4299C25.7529 49.4299 25.4923 49.5379 25.3001 49.7301C25.108 49.9222 25 50.1829 25 50.4546V52.5094C25.0014 52.7808 25.1098 53.0406 25.3017 53.2324C25.4936 53.4243 25.7534 53.5327 26.0247 53.5341H28.0795C28.3391 53.5153 28.582 53.3989 28.7593 53.2083C28.9366 53.0177 29.0351 52.767 29.0351 52.5067C29.0351 52.2464 28.9366 51.9958 28.7593 51.8052C28.582 51.6146 28.3391 51.4982 28.0795 51.4793" fill="#042E26"/>
<path d="M26.0247 32.9698C26.296 32.9684 26.5559 32.86 26.7477 32.6682C26.9396 32.4763 27.048 32.2165 27.0494 31.9451V28.5367C27.0494 28.2649 26.9415 28.0043 26.7493 27.8121C26.5571 27.6199 26.2965 27.512 26.0247 27.512C25.7529 27.512 25.4923 27.6199 25.3001 27.8121C25.108 28.0043 25 28.2649 25 28.5367V31.9451C24.9993 32.0799 25.0253 32.2135 25.0766 32.3381C25.1278 32.4628 25.2033 32.576 25.2985 32.6713C25.3938 32.7666 25.5071 32.8421 25.6317 32.8933C25.7564 32.9445 25.89 32.9706 26.0247 32.9698Z" fill="#042E26"/>
<path d="M25 42.9042C25 43.1759 25.108 43.4366 25.3001 43.6287C25.4923 43.8209 25.7529 43.9289 26.0247 43.9289C26.2965 43.9289 26.5571 43.8209 26.7493 43.6287C26.9414 43.4366 27.0494 43.1759 27.0494 42.9042V39.4903C27.0494 39.2185 26.9414 38.9579 26.7493 38.7657C26.5571 38.5735 26.2965 38.4656 26.0247 38.4656C25.7529 38.4656 25.4923 38.5735 25.3001 38.7657C25.108 38.9579 25 39.2185 25 39.4903V42.9042Z" fill="#042E26"/>
<path d="M28.0795 18.5913H26.0247C25.7529 18.5913 25.4923 18.6993 25.3001 18.8915C25.108 19.0836 25 19.3443 25 19.616V21.6654C25 21.9372 25.108 22.1978 25.3001 22.39C25.4923 22.5822 25.7529 22.6901 26.0247 22.6901C26.2965 22.6901 26.5571 22.5822 26.7493 22.39C26.9414 22.1978 27.0494 21.9372 27.0494 21.6654V20.6407H28.0795C28.3508 20.6393 28.6106 20.5309 28.8025 20.339C28.9944 20.1472 29.1028 19.8874 29.1042 19.616C29.1049 19.4813 29.0789 19.3477 29.0277 19.223C28.9764 19.0984 28.901 18.9852 28.8057 18.8899C28.7104 18.7946 28.5971 18.7191 28.4725 18.6679C28.3478 18.6166 28.2143 18.5906 28.0795 18.5913Z" fill="#042E26"/>
<path d="M38.3531 18.5913H34.9446C34.6729 18.5913 34.4122 18.6993 34.22 18.8915C34.0279 19.0836 33.9199 19.3443 33.9199 19.616C33.9199 19.8878 34.0279 20.1484 34.22 20.3406C34.4122 20.5328 34.6729 20.6407 34.9446 20.6407H38.3531C38.6244 20.6393 38.8842 20.5309 39.0761 20.339C39.268 20.1472 39.3764 19.8874 39.3778 19.616C39.3785 19.4813 39.3525 19.3477 39.3013 19.223C39.25 19.0984 39.1746 18.9852 39.0793 18.8899C38.984 18.7946 38.8707 18.7191 38.7461 18.6679C38.6214 18.6166 38.4879 18.5906 38.3531 18.5913Z" fill="#042E26"/>
<path d="M49.3072 18.5913H45.8987C45.627 18.5913 45.3663 18.6993 45.1742 18.8914C44.982 19.0836 44.874 19.3442 44.874 19.616C44.874 19.8878 44.982 20.1484 45.1742 20.3406C45.3663 20.5328 45.627 20.6407 45.8987 20.6407H49.3072C49.579 20.6407 49.8396 20.5328 50.0318 20.3406C50.2239 20.1484 50.3319 19.8878 50.3319 19.616C50.3319 19.3442 50.2239 19.0836 50.0318 18.8914C49.8396 18.6993 49.579 18.5913 49.3072 18.5913Z" fill="#042E26"/>
<path d="M58.9066 18.5913H56.8519C56.5801 18.5913 56.3194 18.6993 56.1273 18.8914C55.9351 19.0836 55.8271 19.3442 55.8271 19.616C55.8271 19.8878 55.9351 20.1484 56.1273 20.3406C56.3194 20.5328 56.5801 20.6407 56.8519 20.6407H57.8766V21.6654C57.8663 21.8066 57.8853 21.9484 57.9323 22.0819C57.9793 22.2154 58.0533 22.3378 58.1497 22.4415C58.2461 22.5451 58.3628 22.6278 58.4926 22.6843C58.6224 22.7408 58.7624 22.77 58.9039 22.77C59.0455 22.77 59.1855 22.7408 59.3153 22.6843C59.4451 22.6278 59.5618 22.5451 59.6582 22.4415C59.7546 22.3378 59.8286 22.2154 59.8756 22.0819C59.9226 21.9484 59.9416 21.8066 59.9313 21.6654V19.616C59.9299 19.3447 59.8215 19.0849 59.6297 18.893C59.4378 18.7011 59.178 18.5927 58.9066 18.5913Z" fill="#042E26"/>
<path d="M58.9068 38.4492C58.7718 38.4485 58.638 38.4745 58.513 38.5257C58.3881 38.5769 58.2745 38.6522 58.1788 38.7474C58.083 38.8427 58.0071 38.9559 57.9552 39.0805C57.9034 39.2052 57.8767 39.3389 57.8767 39.4739V42.904C57.8665 43.0452 57.8855 43.1869 57.9324 43.3205C57.9794 43.454 58.0535 43.5764 58.1499 43.68C58.2463 43.7837 58.363 43.8663 58.4928 43.9229C58.6225 43.9794 58.7626 44.0086 58.9041 44.0086C59.0457 44.0086 59.1857 43.9794 59.3155 43.9229C59.4452 43.8663 59.562 43.7837 59.6584 43.68C59.7548 43.5764 59.8288 43.454 59.8758 43.3205C59.9228 43.1869 59.9418 43.0452 59.9315 42.904V39.4901C59.9315 39.2168 59.8241 38.9545 59.6324 38.7598C59.4407 38.565 59.1801 38.4535 58.9068 38.4492Z" fill="#042E26"/>
<path d="M58.907 27.49C58.6338 27.49 58.3718 27.5985 58.1787 27.7917C57.9855 27.9849 57.877 28.2469 57.877 28.5201V31.9447C57.8958 32.2044 58.0122 32.4472 58.2028 32.6245C58.3934 32.8018 58.644 32.9004 58.9044 32.9004C59.1647 32.9004 59.4153 32.8018 59.6059 32.6245C59.7965 32.4472 59.9129 32.2044 59.9317 31.9447V28.5363C59.9332 28.2621 59.8264 27.9983 59.6345 27.8024C59.4427 27.6065 59.1812 27.4942 58.907 27.49Z" fill="#042E26"/>
<path d="M51.3888 35.2513C51.3847 35.3947 51.3364 35.5334 51.2505 35.6482C51.1646 35.7631 51.0452 35.8487 50.9088 35.8931L45.3377 37.8616C45.0884 37.9488 44.862 38.0911 44.6753 38.2778C44.4885 38.4646 44.3463 38.691 44.259 38.9402L42.3067 44.5221C42.2611 44.662 42.1723 44.7838 42.0531 44.8701C41.9339 44.9563 41.7905 45.0025 41.6433 45.0021C41.4944 45.0019 41.3492 44.9557 41.2276 44.8697C41.1059 44.7838 41.0138 44.6624 40.9638 44.5221L35.2309 29.7718C35.1766 29.6416 35.1635 29.4979 35.1934 29.36C35.2233 29.2221 35.2947 29.0967 35.3981 29.0006C35.4628 28.9346 35.54 28.882 35.6251 28.8459C35.7103 28.8098 35.8017 28.7909 35.8942 28.7903C35.9858 28.791 36.0767 28.8056 36.1639 28.8334L50.9358 34.5718C51.0779 34.6157 51.2005 34.7073 51.283 34.831C51.3655 34.9548 51.4029 35.1032 51.3888 35.2513Z" fill="#042E26"/>
</svg>
