<svg width="70" height="56" viewBox="0 0 70 56" fill="none" xmlns="http://www.w3.org/2000/svg">
<circle cx="27.5" cy="28.0342" r="27.5" fill="#E9F9F1" fill-opacity="0.63"/>
<path d="M28.0166 12.1527C36.5374 3.63189 50.0871 3.15947 59.1727 10.7078L57.4315 10.819C56.9221 10.8468 56.5332 11.2913 56.5702 11.8007C56.598 12.2916 57.0055 12.6713 57.4964 12.6713H57.5519L61.4697 12.4213C61.516 12.4213 61.553 12.3935 61.5993 12.3842C61.6642 12.3749 61.729 12.3564 61.7846 12.3379C61.8494 12.3101 61.8957 12.2638 61.9513 12.2268C61.9883 12.199 62.0254 12.1897 62.0624 12.1527C62.0624 12.1527 62.0624 12.1341 62.0809 12.1249C62.1272 12.0693 62.1643 12.0137 62.1921 11.9489C62.2199 11.9026 62.2477 11.8655 62.2662 11.8192C62.2847 11.7729 62.2847 11.7174 62.294 11.6618C62.3032 11.597 62.3217 11.5321 62.3217 11.4673V11.4395L62.0717 7.52179C62.0439 7.0124 61.5901 6.61418 61.09 6.65116C60.5806 6.67895 60.1916 7.12351 60.2286 7.63288L60.3305 9.27218C50.5318 1.13136 35.9075 1.65002 26.7104 10.8466C20.6347 16.9223 18.125 25.5729 19.9862 33.9734C20.0788 34.4087 20.4678 34.6958 20.8938 34.6958C20.9587 34.6958 21.0328 34.6958 21.0976 34.6773C21.5977 34.5661 21.9126 34.0753 21.8015 33.5751C20.0695 25.7953 22.3942 17.7932 28.0253 12.162L28.0166 12.1527Z" fill="#042E26"/>
<path d="M68.7959 23.0907C68.6848 22.5906 68.1847 22.2757 67.6938 22.3868C67.1936 22.498 66.8787 22.9888 66.9899 23.489C68.7218 31.2688 66.3971 39.2709 60.766 44.9021C52.2452 53.4228 38.6956 53.8952 29.6099 46.3469L31.3511 46.2357C31.8605 46.208 32.2495 45.7634 32.2124 45.254C32.1754 44.7447 31.7308 44.3464 31.2307 44.3834L27.313 44.6335C27.2667 44.6335 27.2297 44.6613 27.1834 44.6705C27.1185 44.6798 27.0537 44.6983 26.9981 44.7168C26.9333 44.7446 26.887 44.7909 26.8314 44.828C26.7944 44.8557 26.7573 44.865 26.7203 44.9021C26.7203 44.9021 26.7203 44.9206 26.7017 44.9298C26.6554 44.9854 26.6184 45.041 26.5906 45.1058C26.5628 45.1521 26.535 45.1892 26.5165 45.2355C26.498 45.2818 26.498 45.3374 26.4887 45.3929C26.4795 45.4578 26.4609 45.5226 26.4609 45.5874V45.6152L26.711 49.5329C26.7388 50.0238 27.1463 50.4036 27.6372 50.4036H27.6927C28.2021 50.3758 28.5911 49.9312 28.5541 49.4218L28.4522 47.7825C33.0645 51.6076 38.7328 53.534 44.4102 53.534C50.8101 53.534 57.2189 51.0982 62.0907 46.2171C68.1664 40.1415 70.6761 31.4909 68.8149 23.0904L68.7959 23.0907Z" fill="#042E26"/>
<path d="M44.3912 21.7942C40.6773 21.7942 37.6582 24.8135 37.6582 28.5272C37.6582 32.2409 40.6776 35.2603 44.3912 35.2603C48.1049 35.2603 51.1243 32.2409 51.1243 28.5272C51.1243 24.8135 48.1049 21.7942 44.3912 21.7942ZM44.3912 33.4085C41.6961 33.4085 39.5103 31.2135 39.5103 28.5276C39.5103 25.8417 41.7053 23.6467 44.3912 23.6467C47.0772 23.6467 49.2722 25.8417 49.2722 28.5276C49.2722 31.2135 47.0772 33.4085 44.3912 33.4085Z" fill="#042E26"/>
<path d="M59.4968 25.7953C60.1914 25.1284 60.3303 24.0819 59.858 23.2483L56.6998 17.7746C56.2182 16.9411 55.2457 16.5428 54.3195 16.8114L51.93 17.4967C51.5596 17.5986 51.1799 17.5523 50.8464 17.3671C50.513 17.1818 50.2815 16.8669 50.1888 16.4964L49.5868 14.0791C49.3553 13.1437 48.5217 12.4954 47.5585 12.4954H41.2422C40.279 12.4954 39.4454 13.1437 39.2138 14.0791L38.6119 16.4964C38.5192 16.8669 38.2877 17.1818 37.9543 17.3671C37.6208 17.5523 37.2411 17.6079 36.8706 17.4967L34.4812 16.8114C33.5642 16.552 32.5825 16.941 32.1009 17.7746L28.9427 23.2483C28.4611 24.0818 28.6093 25.1284 29.3039 25.7953L31.0914 27.5272C31.3692 27.7958 31.5174 28.1478 31.5174 28.5275C31.5174 28.9072 31.3692 29.2684 31.0914 29.537L29.3039 31.269C28.6093 31.9358 28.4704 32.9824 28.9427 33.8159L32.1009 39.2896C32.5825 40.1231 33.555 40.5214 34.4812 40.2528L36.8706 39.5675C37.2411 39.4564 37.6208 39.5119 37.9543 39.6972C38.2877 39.8917 38.5192 40.1973 38.6119 40.5678L39.2138 42.9851C39.4454 43.9205 40.279 44.5689 41.2422 44.5689H47.5585C48.5217 44.5689 49.3553 43.9205 49.5868 42.9851L50.1888 40.5678C50.2815 40.1973 50.513 39.8825 50.8464 39.6972C51.1799 39.5027 51.5596 39.4564 51.93 39.5675L54.3195 40.2528C55.2457 40.5214 56.2182 40.1232 56.6998 39.2896L59.858 33.8159C60.3396 32.9824 60.1914 31.9358 59.4968 31.269L57.7093 29.537C57.4314 29.2684 57.2833 28.9165 57.2833 28.5275C57.2833 28.1385 57.4314 27.7866 57.7093 27.5272L59.4968 25.7953ZM56.4219 30.8614L58.2094 32.5934C58.2835 32.6675 58.302 32.7879 58.2465 32.8805L55.0882 38.3542C55.0327 38.4468 54.9215 38.4931 54.8196 38.4653L52.4301 37.78C51.5781 37.5392 50.6797 37.6503 49.911 38.0856C49.1422 38.5302 48.5958 39.2526 48.3828 40.114L47.7808 42.5313C47.753 42.6331 47.6604 42.7072 47.5493 42.7072H41.2329C41.1218 42.7072 41.0292 42.6331 41.0014 42.5313L40.3994 40.114C40.1864 39.2526 39.6399 38.5302 38.8712 38.0856C38.3711 37.7985 37.8154 37.6503 37.2504 37.6503C36.954 37.6503 36.6484 37.6966 36.352 37.78L33.9625 38.4653C33.8607 38.4931 33.7495 38.4468 33.6939 38.3542L30.5357 32.8805C30.4802 32.7879 30.4987 32.6675 30.5728 32.5934L32.3603 30.8614C32.9993 30.2409 33.3513 29.4166 33.3513 28.5275C33.3513 27.6384 32.9993 26.8048 32.3603 26.1935L30.5728 24.4616C30.4987 24.3875 30.4802 24.2671 30.5357 24.1745L33.6939 18.7008C33.7495 18.6082 33.8607 18.5618 33.9625 18.5896L36.352 19.275C37.2041 19.5158 38.1025 19.4139 38.8712 18.9693C39.6399 18.5248 40.1864 17.8023 40.3994 16.941L41.0014 14.5237C41.0292 14.4218 41.1218 14.3477 41.2329 14.3477H47.5493C47.6604 14.3477 47.753 14.4218 47.7808 14.5237L48.3828 16.941C48.5958 17.8023 49.1422 18.5248 49.911 18.9693C50.6797 19.4139 51.5781 19.525 52.4301 19.275L54.8196 18.5896C54.9215 18.5618 55.0327 18.6082 55.0882 18.7008L58.2465 24.1745C58.302 24.2671 58.2835 24.3875 58.2094 24.4616L56.4219 26.1935C55.7829 26.8141 55.4309 27.6384 55.4309 28.5275C55.4309 29.4166 55.7828 30.2501 56.4219 30.8614Z" fill="#042E26"/>
</svg>
