<svg width="67" height="56" viewBox="0 0 67 56" fill="none" xmlns="http://www.w3.org/2000/svg">
<circle cx="27.5" cy="28.0342" r="27.5" fill="#E9F9F1" fill-opacity="0.63"/>
<path d="M64.8341 27.1452H39.1396C39.0908 27.1452 39.0501 27.1534 39.0067 27.1588C38.3611 23.5971 35.2496 20.8953 31.5005 20.8953C27.7513 20.8953 24.6401 23.5971 23.9942 27.1588C23.9535 27.1588 23.9101 27.1452 23.8694 27.1452H20.3972C19.6322 27.1452 19.0083 27.7692 19.0083 28.5341C19.0083 29.2991 19.6322 29.923 20.3972 29.923H23.8694C23.9101 29.923 23.9535 29.9149 23.9942 29.9095C24.648 33.4712 27.7594 36.173 31.5005 36.173C35.2439 36.173 38.3608 33.4712 39.0067 29.9095C39.0474 29.9095 39.0962 29.923 39.1396 29.923H64.8341C65.5991 29.923 66.223 29.2991 66.223 28.5341C66.223 27.7692 65.5991 27.1452 64.8341 27.1452ZM31.5007 33.3953C28.8206 33.3953 26.6396 31.2143 26.6396 28.5341C26.6396 25.854 28.8206 23.673 31.5007 23.673C34.1809 23.673 36.3619 25.854 36.3619 28.5341C36.3619 31.2143 34.1809 33.3953 31.5007 33.3953Z" fill="#042E26"/>
<path d="M64.8341 9.78416H57.8897C57.8409 9.78416 57.8002 9.7923 57.7568 9.79773C57.1111 6.23599 53.9997 3.53418 50.2505 3.53418C46.5013 3.53418 43.3902 6.23599 42.7442 9.79773C42.7036 9.79773 42.6602 9.78416 42.6195 9.78416H20.3889C19.6239 9.78416 19 10.4081 19 11.1731C19 11.938 19.6239 12.5619 20.3889 12.5619H42.6111C42.6518 12.5619 42.6952 12.5538 42.7359 12.5484C43.3897 16.1101 46.5011 18.8119 50.2422 18.8119C53.9856 18.8119 57.1025 16.1101 57.7484 12.5484C57.7891 12.5484 57.8379 12.5619 57.8813 12.5619H64.8258C65.5908 12.5619 66.2147 11.938 66.2147 11.1731C66.2147 10.4081 65.5908 9.78416 64.8258 9.78416H64.8341ZM50.2508 16.0342C47.5706 16.0342 45.3897 13.8532 45.3897 11.1731C45.3897 8.49291 47.5706 6.31194 50.2508 6.31194C52.9309 6.31194 55.1119 8.49291 55.1119 11.1731C55.1119 13.8532 52.9309 16.0342 50.2508 16.0342Z" fill="#042E26"/>
<path d="M64.8341 44.5063H61.3619C61.3131 44.5063 61.2724 44.5145 61.229 44.5199C60.5834 40.9582 57.4719 38.2563 53.7227 38.2563C49.9736 38.2563 46.8624 40.9582 46.2165 44.5199C46.1758 44.5199 46.1324 44.5063 46.0917 44.5063H20.3889C19.6239 44.5063 19 45.1302 19 45.8952C19 46.6602 19.6239 47.2841 20.3889 47.2841H46.0834C46.124 47.2841 46.1674 47.276 46.2081 47.2705C46.8619 50.8323 49.9733 53.5341 53.7144 53.5341C57.4579 53.5341 60.5748 50.8323 61.2207 47.2705C61.2613 47.2705 61.3102 47.2841 61.3536 47.2841H64.8258C65.5908 47.2841 66.2147 46.6602 66.2147 45.8952C66.2147 45.1302 65.5908 44.5063 64.8258 44.5063H64.8341ZM53.723 50.7563C51.0429 50.7563 48.8619 48.5754 48.8619 45.8952C48.8619 43.2151 51.0429 41.0341 53.723 41.0341C56.4032 41.0341 58.5841 43.2151 58.5841 45.8952C58.5841 48.5754 56.4032 50.7563 53.723 50.7563Z" fill="#042E26"/>
</svg>
