<svg width="73" height="56" viewBox="0 0 73 56" fill="none" xmlns="http://www.w3.org/2000/svg">
<circle cx="27.5" cy="28.0342" r="27.5" fill="#E9F9F1" fill-opacity="0.63"/>
<path d="M24.3021 31.4214C22.0966 31.4214 20.2979 33.2122 20.2979 35.4177V44.3905C20.2979 46.5934 22.0966 48.3948 24.3021 48.3948H26.769C28.9745 48.3948 30.7733 46.596 30.7733 44.3905V35.4177C30.7733 33.2149 28.9745 31.4214 26.769 31.4214H24.3021ZM28.7447 35.4177V44.3905C28.7447 45.4788 27.8599 46.3662 26.769 46.3662H24.3021C23.2138 46.3662 22.3264 45.4788 22.3264 44.3905V35.4177C22.3264 34.3295 23.2112 33.4499 24.3021 33.4499H26.769C27.8573 33.4499 28.7447 34.3295 28.7447 35.4177Z" fill="#042E26"/>
<path d="M37.3109 25.5869C35.1001 25.5869 33.3066 27.3777 33.3066 29.5832V44.3901C33.3066 46.5929 35.0974 48.3943 37.3109 48.3943H39.7778C41.9833 48.3943 43.7741 46.5955 43.7741 44.3901V29.5832C43.7741 27.3804 41.9834 25.5869 39.7778 25.5869H37.3109ZM41.7483 29.5805V44.3874C41.7483 45.4756 40.8634 46.3631 39.7805 46.3631H37.3135C36.2253 46.3631 35.3378 45.4756 35.3378 44.3874V29.5805C35.3378 28.4976 36.2226 27.6127 37.3135 27.6127H39.7805C40.8634 27.6127 41.7483 28.5002 41.7483 29.5805Z" fill="#042E26"/>
<path d="M50.3137 15.1533C48.1082 15.1533 46.3174 16.9441 46.3174 19.1496V44.3898C46.3174 46.5927 48.1082 48.3941 50.3137 48.3941H52.7807C54.9914 48.3941 56.7849 46.5953 56.7849 44.3898V19.1496C56.7849 16.9442 54.9941 15.1533 52.7807 15.1533H50.3137ZM54.7564 19.1469V44.3871C54.7564 45.4754 53.8715 46.3628 52.7807 46.3628H50.3137C49.2307 46.3628 48.3459 45.4754 48.3459 44.3871V19.1469C48.3459 18.064 49.2307 17.1791 50.3137 17.1791H52.7807C53.8689 17.1791 54.7564 18.064 54.7564 19.1469Z" fill="#042E26"/>
<path d="M63.3241 48.3911H65.791C67.9965 48.3911 69.7952 46.5924 69.7952 44.3869V23.7501C69.7952 21.5472 67.9965 19.7458 65.791 19.7458H63.3241C61.1186 19.7458 59.3198 21.5446 59.3198 23.7501V44.3869C59.3198 46.5897 61.1186 48.3911 63.3241 48.3911ZM61.3483 23.7527C61.3483 22.6645 62.2332 21.777 63.3241 21.777H65.791C66.8792 21.777 67.7667 22.6618 67.7667 23.7527V44.3895C67.7667 45.4778 66.8819 46.3652 65.791 46.3652H63.3241C62.2358 46.3652 61.3483 45.4778 61.3483 44.3895V23.7527Z" fill="#042E26"/>
<path d="M60.8634 11.8305C60.8634 13.8643 62.5195 15.523 64.556 15.523C66.5977 15.523 68.2538 13.8669 68.2538 11.8305C68.2538 9.78881 66.5977 8.13266 64.556 8.13266C63.3198 8.13266 62.2237 8.74808 61.5528 9.6884L55.2375 7.45648C55.2375 7.38252 55.2454 7.30065 55.2454 7.22669C55.2454 5.19026 53.5893 3.53418 51.5529 3.53418C49.5112 3.53418 47.855 5.19026 47.855 7.22669C47.855 7.73382 47.9633 8.21986 48.1456 8.65829L40.6813 14.6488C40.0738 14.2156 39.3421 13.9673 38.5445 13.9673C36.508 13.9673 34.852 15.6234 34.852 17.6598C34.852 17.8421 34.8652 18.0191 34.8916 18.1881L28.3596 21.1146C27.6834 20.3117 26.6692 19.7967 25.5387 19.7967C23.497 19.7967 21.8408 21.4606 21.8408 23.4945C21.8408 25.5309 23.4969 27.187 25.5387 27.187C27.5751 27.187 29.2312 25.5309 29.2312 23.4945C29.2312 23.3123 29.2101 23.1432 29.1916 22.9662L35.7235 20.0397C36.3997 20.8453 37.414 21.3577 38.5445 21.3577C40.5862 21.3577 42.2423 19.7016 42.2423 17.6598C42.2423 17.1527 42.134 16.672 41.9518 16.2256L49.4161 10.2404C50.0236 10.6656 50.7552 10.9218 51.5529 10.9218C52.789 10.9218 53.8851 10.3064 54.5613 9.36611L60.8766 11.598C60.8687 11.672 60.8634 11.7459 60.8634 11.8278L60.8634 11.8305ZM64.556 10.1612C65.4751 10.1612 66.2253 10.9113 66.2253 11.8305C66.2253 12.7497 65.4751 13.4945 64.556 13.4945C63.642 13.4945 62.892 12.7496 62.892 11.8305C62.892 10.9114 63.6421 10.1612 64.556 10.1612ZM25.5387 25.1587C24.6196 25.1587 23.8694 24.4138 23.8694 23.4947C23.8694 22.5756 24.6196 21.8254 25.5387 21.8254C26.4527 21.8254 27.2027 22.5755 27.2027 23.4947C27.2027 24.4139 26.4526 25.1587 25.5387 25.1587ZM38.5415 19.332C37.6224 19.332 36.8776 18.5818 36.8776 17.6626C36.8776 16.7435 37.6224 15.9986 38.5415 15.9986C39.4607 15.9986 40.2109 16.7435 40.2109 17.6626C40.2109 18.5818 39.4607 19.332 38.5415 19.332ZM51.5525 8.89863C50.6333 8.89863 49.8831 8.14848 49.8831 7.22929C49.8831 6.3101 50.6333 5.5653 51.5525 5.5653C52.4717 5.5653 53.2165 6.31017 53.2165 7.22929C53.2165 8.14848 52.4716 8.89863 51.5525 8.89863Z" fill="#042E26"/>
<path d="M71.0796 51.5056H19.0143C18.4543 51.5056 18 51.9599 18 52.5199C18 53.0798 18.4543 53.5341 19.0143 53.5341H71.0796C71.6395 53.5341 72.0938 53.0798 72.0938 52.5199C72.0938 51.9599 71.6395 51.5056 71.0796 51.5056Z" fill="#042E26"/>
</svg>
