<svg width="25" height="25" viewBox="0 0 25 25" fill="none" xmlns="http://www.w3.org/2000/svg">
<path d="M23.8421 7.23684C23.3947 7.73684 22.9737 8.23684 22.5789 8.73684C22.3947 8.94737 22.2368 9.1579 22.0526 9.39474C22.3684 10.3684 22.5526 11.4211 22.5526 12.5C22.5263 18.0263 18.0263 22.5263 12.5 22.5263C6.97368 22.5263 2.47368 18.0263 2.47368 12.5C2.47368 6.97368 6.97368 2.47368 12.5 2.47368C14.2632 2.47368 15.9474 2.94737 17.3947 3.73684C17.8947 3.23684 18.3947 2.76316 18.9211 2.28947L19.2632 2C17.3158 0.736842 15 0 12.5 0C5.60526 0 0 5.60526 0 12.5C0 19.3947 5.60526 25 12.5 25C19.3947 25 25 19.3947 25 12.5C25 10.6316 24.5789 8.84211 23.8421 7.23684Z" fill="url(#paint0_linear_6_206)"/>
<path d="M16.0267 8.78952C15.0793 9.94742 14.1846 11.1316 13.3424 12.3422C12.9214 12.9474 12.5003 13.579 12.1056 14.2106L8.73718 10.0527C8.34245 9.579 7.65824 9.47373 7.13192 9.81584C6.57929 10.1843 6.44771 10.9211 6.81613 11.4737L11.053 17.7632C11.1582 17.9211 11.3161 18.079 11.5003 18.1843C11.7372 18.3422 12.0003 18.4211 12.2635 18.4211C12.7635 18.4211 13.3161 18.1579 13.553 17.7106C13.7898 17.2895 14.974 15.1053 15.7635 13.9211C16.5267 12.7369 17.3161 11.579 18.1846 10.4474C19.0267 9.31584 19.9214 8.21057 20.8688 7.15794C21.7898 6.10531 22.7898 5.02636 23.7898 4.10531L23.8161 4.07899C24.2898 3.63163 24.3161 2.89478 23.8951 2.4211C23.4477 1.9211 22.7109 1.86847 22.2109 2.31584C21.053 3.34215 20.0267 4.36847 19.0003 5.44742C17.9477 6.52636 16.9477 7.63163 16.0267 8.78952Z" fill="url(#paint1_linear_6_206)"/>
<defs>
<linearGradient id="paint0_linear_6_206" x1="0" y1="12.5" x2="25" y2="12.5" gradientUnits="userSpaceOnUse">
<stop stop-color="#042E26"/>
<stop offset="1" stop-color="#36D487"/>
</linearGradient>
<linearGradient id="paint1_linear_6_206" x1="6.6084" y1="10.2159" x2="24.1923" y2="10.2159" gradientUnits="userSpaceOnUse">
<stop stop-color="#042E26"/>
<stop offset="1" stop-color="#36D487"/>
</linearGradient>
</defs>
</svg>
