<svg width="58" height="60" viewBox="0 0 58 60" fill="none" xmlns="http://www.w3.org/2000/svg">
<path d="M54.4149 8.35995L40.3248 3.70347C39.943 1.59878 38.1083 0 35.8919 0H4.50747C2.02093 0 0 2.01783 0 4.50747V49.6378C0 52.1244 2.01783 54.1453 4.50747 54.1453H20.4111L37.4352 59.7703C37.9039 59.9224 38.382 60 38.8414 60C40.7319 60 42.4983 58.7986 43.1253 56.9081L57.2869 14.0562C58.0661 11.6969 56.7778 9.14517 54.4185 8.35666L54.4149 8.35995ZM1.87788 49.6376V4.50724C1.87788 3.06064 3.05444 1.88408 4.50104 1.88408H35.8981C37.3447 1.88408 38.5213 3.06064 38.5213 4.50724V49.6376C38.5213 51.0842 37.3447 52.2607 35.8981 52.2607H4.50739C3.0608 52.2607 1.88424 51.0842 1.88424 49.6376H1.87788ZM55.4957 13.4627L41.3341 56.3147C40.8808 57.6899 39.3939 58.438 38.0186 57.9848L26.3993 54.1479H35.8952C38.3817 54.1479 40.4027 52.1301 40.4027 49.6404L40.4058 5.71486L53.8291 10.1478C55.2043 10.601 55.9525 12.0942 55.4992 13.4694L55.4957 13.4627Z" fill="#042E26"/>
<path d="M10.8739 22.8632C11.1595 23.1488 11.501 23.3413 11.8673 23.4686V28.3951C11.8673 29.73 12.9569 30.8103 14.2917 30.8103H26.1098C27.4446 30.8103 28.5249 29.7207 28.5249 28.3951V23.4748C28.8975 23.3568 29.2389 23.1488 29.5183 22.8694C29.5276 22.8601 29.5338 22.8539 29.5432 22.8446C30.0026 22.3666 30.2572 21.7488 30.2572 21.0813C30.2572 20.4139 29.9964 19.7713 29.5183 19.2932L21.9934 11.7684C21.5154 11.2903 20.8821 11.0295 20.2147 11.0295H20.1836C19.5069 11.0295 18.8736 11.2903 18.3955 11.7684L10.8707 19.2932C10.3926 19.7713 10.1318 20.4046 10.1318 21.0906C10.1318 21.7736 10.3864 22.3851 10.8458 22.8539L10.8707 22.8787L10.8739 22.8632ZM19.0101 28.8483V25.4956C19.0101 24.8375 19.544 24.3036 20.2021 24.3036C20.5187 24.3036 20.8137 24.4308 21.0434 24.6544C21.2669 24.8779 21.3942 25.179 21.3942 25.4956V28.8483L19.0101 28.8483ZM26.1158 28.9352H23.2785V25.4957C23.2785 24.6762 22.9618 23.9063 22.372 23.3257C21.7915 22.7452 21.0217 22.4286 20.2021 22.4286C18.5103 22.4286 17.1257 23.8038 17.1257 25.505V28.9445H14.2884C13.9935 28.9445 13.7483 28.7055 13.7483 28.4044V23.3754C14.009 23.2575 14.2481 23.0898 14.456 22.8818L20.2021 17.1357L25.9482 22.8818C26.1562 23.0898 26.3921 23.2544 26.656 23.3754V28.4044C26.656 28.6993 26.417 28.9445 26.1159 28.9445L26.1158 28.9352ZM12.2085 20.6155L19.7334 13.0906C19.8514 12.9727 20.019 12.9013 20.2021 12.9013C20.3853 12.9013 20.5436 12.9633 20.6709 13.0906L28.1958 20.6155C28.3137 20.7335 28.3851 20.9011 28.3851 21.0749C28.3851 21.2488 28.323 21.4164 28.1958 21.5344L28.1802 21.5499C28.0436 21.6772 27.8636 21.7392 27.6711 21.7237C27.5687 21.7144 27.4104 21.6772 27.2738 21.5406L20.8696 15.1364C20.6958 14.9625 20.4567 14.857 20.2022 14.857C19.9476 14.857 19.7086 14.9532 19.5348 15.1364L13.1306 21.5406C12.994 21.6772 12.8357 21.7144 12.7332 21.7237C12.5439 21.7392 12.3607 21.6772 12.2241 21.5499L12.2086 21.5344C12.0906 21.4164 12.0192 21.2488 12.0192 21.0749C12.0192 20.9011 12.0812 20.7335 12.2085 20.6155Z" fill="#042E26"/>
<path d="M34.3733 35.5071H6.03419C5.51887 35.5071 5.09668 35.9293 5.09668 36.4446C5.09668 36.9599 5.51886 37.3821 6.03419 37.3821H34.3733C34.8886 37.3821 35.3108 36.9599 35.3108 36.4446C35.3108 35.9293 34.8886 35.5071 34.3733 35.5071Z" fill="#042E26"/>
<path d="M34.3733 41.2527H6.03419C5.51887 41.2527 5.09668 41.6749 5.09668 42.1902C5.09668 42.7055 5.51886 43.1277 6.03419 43.1277H34.3733C34.8886 43.1277 35.3108 42.7055 35.3108 42.1902C35.3108 41.6749 34.8886 41.2527 34.3733 41.2527Z" fill="#042E26"/>
</svg>
