<svg width="61" height="60" viewBox="0 0 61 60" fill="none" xmlns="http://www.w3.org/2000/svg">
<path d="M54.3107 14.1267L54.31 14.1257C49.0196 6.17833 40.1509 1.43286 30.5873 1.43286C21.7307 1.43286 13.5317 5.4352 8.09917 12.412L8.09905 12.4122C7.94049 12.616 7.64873 12.6523 7.44469 12.4936C7.24156 12.3357 7.20524 12.0423 7.36303 11.8398L7.36315 11.8396C12.975 4.63304 21.4374 0.5 30.5873 0.5C40.4654 0.5 49.6235 5.40046 55.0866 13.6079C55.2292 13.8223 55.1711 14.112 54.9576 14.2549C54.8754 14.3089 54.7854 14.3338 54.6988 14.3338C54.5459 14.3338 54.3991 14.2602 54.3107 14.1267ZM6.96946 11.5331L6.96866 11.5324L6.96946 11.5331Z" stroke="#042E26"/>
<path d="M54.8445 14.0949H55.3485L55.3445 13.5909L55.3184 10.2918C55.3184 10.2917 55.3184 10.2916 55.3184 10.2915C55.3184 10.2915 55.3184 10.2915 55.3184 10.2915C55.3167 10.0329 55.5228 9.82394 55.7793 9.82129H55.7793H55.7793H55.7793H55.7793H55.7793H55.7794H55.7794H55.7794H55.7794H55.7794H55.7794H55.7795H55.7795H55.7795H55.7795H55.7795H55.7795H55.7796H55.7796H55.7796H55.7796H55.7796H55.7796H55.7797H55.7797H55.7797H55.7797H55.7797H55.7797H55.7798H55.7798H55.7798H55.7798H55.7798H55.7798H55.7799H55.7799H55.7799H55.7799H55.7799H55.7799H55.78H55.78H55.78H55.78H55.78H55.78H55.7801H55.7801H55.7801H55.7801H55.7801H55.7801H55.7802H55.7802H55.7802H55.7802H55.7802H55.7802H55.7803H55.7803H55.7803H55.7803H55.7803H55.7803H55.7804H55.7804H55.7804H55.7804H55.7804H55.7804H55.7804H55.7805H55.7805H55.7805H55.7805H55.7805H55.7805H55.7806H55.7806H55.7806H55.7806H55.7806H55.7806H55.7807H55.7807H55.7807H55.7807H55.7807H55.7807H55.7808H55.7808H55.7808H55.7808H55.7808H55.7808H55.7808H55.7809H55.7809H55.7809H55.7809H55.7809H55.7809H55.781H55.781H55.781H55.781H55.781H55.781H55.7811H55.7811H55.7811H55.7811H55.7811H55.7811H55.7811H55.7812H55.7812H55.7812H55.7812H55.7812H55.7812H55.7813H55.7813H55.7813H55.7813H55.7813H55.7813H55.7814H55.7814H55.7814H55.7814H55.7814H55.7814H55.7814H55.7815H55.7815H55.7815H55.7815H55.7815H55.7815H55.7816H55.7816H55.7816H55.7816H55.7816H55.7816H55.7816H55.7817H55.7817H55.7817H55.7817H55.7817H55.7817H55.7818H55.7818H55.7818H55.7818H55.7818H55.7818H55.7818H55.7819H55.7819H55.7819H55.7819H55.7819H55.7819H55.782H55.782H55.782H55.782H55.782H55.782H55.782H55.7821H55.7821H55.7821H55.7821H55.7821H55.7821H55.7821H55.7822H55.7822H55.7822H55.7822H55.7822H55.7822H55.7823H55.7823H55.7823H55.7823H55.7823H55.7823H55.7823H55.7824H55.7824H55.7824H55.7824H55.7824H55.7824H55.7824H55.7825H55.7825H55.7825H55.7825H55.7825H55.7825H55.7825H55.7826H55.7826H55.7826H55.7826H55.7826H55.7826H55.7826H55.7827H55.7827H55.7827H55.7827H55.7827H55.7827H55.7827H55.7828H55.7828H55.7828H55.7828H55.7828H55.7828H55.7828H55.7829H55.7829H55.7829H55.7829H55.7829H55.7829H55.7829H55.783H55.783H55.783H55.783H55.783H55.783H55.783H55.7831H55.7831H55.7831H55.7831H55.7831H55.7831H55.7831H55.7832H55.7832H55.7832H55.7832H55.7832H55.7832H55.7832H55.7833H55.7833H55.7833H55.7833H55.7833H55.7833H55.7833H55.7834H55.7834H55.7834H55.7834H55.7834H55.7834H55.7834H55.7834H55.7835H55.7835H55.7835H55.7835H55.7835H55.7835H55.7835H55.7836H55.7836H55.7836H55.7836H55.7836H55.7836H55.7836H55.7836H55.7837H55.7837H55.7837H55.7837H55.7837H55.7837H55.7837H55.7838H55.7838H55.7838H55.7838H55.7838H55.7838H55.7838H55.7838H55.7839H55.7839H55.7839H55.7839H55.7839H55.7839H55.7839H55.7839H55.784H55.784H55.784H55.784H55.784H55.784H55.784H55.7841H55.7841H55.7841H55.7841H55.7841H55.7841H55.7841H55.7841H55.7842H55.7842H55.7842H55.7842H55.7842H55.7842H55.7842H55.7842H55.7843H55.7843H55.7843H55.7843H55.7843H55.7843H55.7843H55.7843H55.7844H55.7844H55.7844H55.7844H55.7844H55.7844H55.7844H55.7844H55.7844H55.7845H55.7845H55.7845H55.7845H55.7845H55.7845H55.7845H55.7845H55.7846H55.7846H55.7846H55.7846H55.7846H55.7846H55.7846H55.7846H55.7847H55.7847H55.7847H55.7847H55.7847H55.7847H55.7847H55.7847H55.7847H55.7848H55.7848H55.7848H55.7848H55.7848H55.7848H55.7848H55.7848H55.7848H55.7849H55.7849C56.0415 9.82129 56.2495 10.0276 56.2513 10.2836L56.2513 10.2841L56.2861 14.5573C56.287 14.6825 56.2385 14.8011 56.1518 14.8886C56.0617 14.9785 55.9421 15.0277 55.8187 15.0277H51.2272C50.9698 15.0277 50.7607 14.8186 50.7607 14.5613C50.7607 14.304 50.9698 14.0949 51.2272 14.0949H54.8445Z" stroke="#042E26"/>
<mask id="path-3-inside-1_2014_73" fill="white">
<path d="M39.1894 58.1813C38.7777 58.1813 38.395 57.9155 38.2665 57.4999C38.108 56.9906 38.3931 56.4494 38.9033 56.2909C50.6378 52.6533 58.5219 41.9819 58.5219 29.7382C58.5219 26.2987 57.8995 22.9442 56.6722 19.7665C56.4799 19.2688 56.7273 18.7093 57.225 18.5169C57.7227 18.3266 58.2832 18.573 58.4746 19.0697C59.788 22.4706 60.4548 26.06 60.4548 29.7382C60.4548 42.8343 52.0236 54.2469 39.4755 58.1368C39.3808 58.1668 39.2841 58.1813 39.1894 58.1813Z"/>
</mask>
<path d="M38.2665 57.4999L42.0879 56.318L42.0858 56.3114L38.2665 57.4999ZM38.9033 56.2909L37.719 52.4703L37.7168 52.471L38.9033 56.2909ZM56.6722 19.7665L60.4035 18.3253L60.4033 18.3248L56.6722 19.7665ZM57.225 18.5169L55.7959 14.7809L55.7832 14.7858L57.225 18.5169ZM58.4746 19.0697L54.7419 20.5076L54.7432 20.5108L58.4746 19.0697ZM39.4755 58.1368L38.2911 54.3162L38.2801 54.3196L38.2691 54.3231L39.4755 58.1368ZM39.1894 54.1813C40.4792 54.1813 41.6828 55.0086 42.0878 56.318L34.4451 58.6819C35.1072 60.8225 37.0762 62.1813 39.1894 62.1813V54.1813ZM42.0858 56.3114C42.5859 57.9185 41.6838 59.6158 40.0899 60.1109L37.7168 52.471C35.1023 53.283 33.63 56.0628 34.4471 58.6885L42.0858 56.3114ZM40.0877 60.1116C53.4887 55.9573 62.5219 43.743 62.5219 29.7382H54.5219C54.5219 40.2209 47.7868 49.3493 37.719 52.4703L40.0877 60.1116ZM62.5219 29.7382C62.5219 25.8106 61.8102 21.9671 60.4035 18.3253L52.9408 21.2078C53.9889 23.9212 54.5219 26.7868 54.5219 29.7382H62.5219ZM60.4033 18.3248C61.0066 19.8861 60.2312 21.6435 58.6667 22.2481L55.7832 14.7858C53.2233 15.775 51.9531 18.6515 52.941 21.2083L60.4033 18.3248ZM58.6541 22.2529C57.1136 22.8422 55.3517 22.0905 54.7419 20.5076L62.2072 17.6319C61.2147 15.0555 58.3318 13.8109 55.7959 14.781L58.6541 22.2529ZM54.7432 20.5108C55.8776 23.4484 56.4548 26.5489 56.4548 29.7382H64.4548C64.4548 25.571 63.6983 21.4929 62.206 17.6287L54.7432 20.5108ZM56.4548 29.7382C56.4548 41.0737 49.1723 50.943 38.2911 54.3162L40.6599 61.9575C54.8749 57.5508 64.4548 44.5949 64.4548 29.7382H56.4548ZM38.2691 54.3231C38.5664 54.229 38.8767 54.1813 39.1894 54.1813V62.1813C39.6915 62.1813 40.1951 62.1045 40.6819 61.9506L38.2691 54.3231Z" fill="#042E26" mask="url(#path-3-inside-1_2014_73)"/>
<mask id="path-5-inside-2_2014_73" fill="white">
<path d="M41.9496 59.9999C41.8182 59.9999 41.6848 59.9729 41.5573 59.9159L37.6374 58.1724C37.3794 58.0574 37.1842 57.8351 37.1039 57.5645C37.0237 57.2939 37.0653 57.0011 37.219 56.7643L39.5452 53.1731C39.8361 52.7246 40.4323 52.5971 40.8817 52.887C41.3302 53.1769 41.4577 53.7752 41.1678 54.2236L39.4562 56.8668L42.343 58.1512C42.8301 58.3686 43.0494 58.9388 42.833 59.4269C42.6735 59.7864 42.3198 59.9999 41.9496 59.9999Z"/>
</mask>
<path d="M41.5573 59.9159L43.1895 56.2641L43.1828 56.2611L41.5573 59.9159ZM37.6374 58.1724L36.0091 61.826L36.0119 61.8272L37.6374 58.1724ZM37.219 56.7643L40.5743 58.9419L40.5762 58.939L37.219 56.7643ZM39.5452 53.1731L36.1894 50.9962L36.1879 50.9985L39.5452 53.1731ZM40.8817 52.887L43.0535 49.5279L43.0502 49.5258L40.8817 52.887ZM41.1678 54.2236L44.5253 56.3977L44.5269 56.3954L41.1678 54.2236ZM39.4562 56.8668L36.0987 54.6926L33.5559 58.6196L37.8302 60.5214L39.4562 56.8668ZM42.343 58.1512L43.9736 54.4986L43.969 54.4966L42.343 58.1512ZM42.833 59.4269L39.1765 57.805L39.1765 57.805L42.833 59.4269ZM41.9496 55.9999C42.3706 55.9999 42.7944 56.0875 43.1895 56.2641L39.925 63.5677C40.5753 63.8583 41.2658 63.9999 41.9496 63.9999V55.9999ZM43.1828 56.2611L39.263 54.5176L36.0119 61.8272L39.9317 63.5707L43.1828 56.2611ZM39.2658 54.5189C40.0729 54.8786 40.686 55.5742 40.939 56.4277L33.2689 58.7014C33.6823 60.0961 34.6858 61.2362 36.0091 61.826L39.2658 54.5189ZM40.939 56.4277C41.1889 57.2706 41.0623 58.19 40.5743 58.9419L33.8636 54.5868C33.0683 55.8123 32.8586 57.3173 33.2689 58.7014L40.939 56.4277ZM40.5762 58.939L42.9024 55.3477L36.1879 50.9985L33.8617 54.5897L40.5762 58.939ZM42.9009 55.35C41.9902 56.7539 40.1146 57.1523 38.7132 56.2482L43.0502 49.5258C40.7501 48.0418 37.6819 48.6954 36.1894 50.9962L42.9009 55.35ZM38.7099 56.2461C37.2979 55.3331 36.9026 53.4532 37.8087 52.0518L44.5269 56.3954C46.0128 54.0971 45.3624 51.0208 43.0535 49.5279L38.7099 56.2461ZM37.8102 52.0495L36.0987 54.6926L42.8138 59.0409L44.5253 56.3977L37.8102 52.0495ZM37.8302 60.5214L40.7169 61.8058L43.969 54.4966L41.0823 53.2122L37.8302 60.5214ZM40.7124 61.8037C39.1869 61.1227 38.4982 59.3342 39.1765 57.805L46.4894 61.0487C47.6006 58.5435 46.4733 55.6145 43.9736 54.4986L40.7124 61.8037ZM39.1765 57.805C39.6846 56.6595 40.8036 55.9999 41.9496 55.9999V63.9999C43.836 63.9999 45.6624 62.9132 46.4894 61.0487L39.1765 57.805Z" fill="#042E26" mask="url(#path-5-inside-2_2014_73)"/>
<mask id="path-7-inside-3_2014_73" fill="white">
<path d="M30.5873 59.4762C14.1174 59.4762 0.717773 46.1366 0.717773 29.7381C0.717773 26.086 2.45349 21.6037 3.72048 18.3294L3.89347 17.8829C4.08579 17.3852 4.64729 17.1407 5.14307 17.3291C5.64078 17.5215 5.88819 18.081 5.69683 18.5787L5.52288 19.0272C4.31097 22.1594 2.65064 26.4474 2.65064 29.7381C2.65064 45.0696 15.1824 57.5434 30.5873 57.5434C30.9739 57.5434 31.3605 57.5356 31.7441 57.5202C32.2921 57.5124 32.728 57.9135 32.7492 58.446C32.7705 58.9795 32.3559 59.4298 31.8234 59.4511C31.4117 59.4685 31 59.4762 30.5873 59.4762Z"/>
</mask>
<path d="M3.72048 18.3294L-0.00935504 16.8843L-0.00997242 16.8859L3.72048 18.3294ZM3.89347 17.8829L7.62331 19.328L7.62461 19.3246L3.89347 17.8829ZM5.14307 17.3291L6.58481 13.598L6.57458 13.594L6.56432 13.5901L5.14307 17.3291ZM5.69683 18.5787L9.42607 20.0254L9.4304 20.0142L5.69683 18.5787ZM5.52288 19.0272L1.79365 17.5805L1.79238 17.5838L5.52288 19.0272ZM31.7441 57.5202L31.6877 53.5206L31.6354 53.5213L31.583 53.5234L31.7441 57.5202ZM32.7492 58.446L36.746 58.2867L36.746 58.2864L32.7492 58.446ZM31.8234 59.4511L31.6638 55.4543L31.6545 55.4547L31.8234 59.4511ZM30.5873 55.4762C16.3098 55.4762 4.71777 43.9107 4.71777 29.7381H-3.28223C-3.28223 48.3624 11.925 63.4762 30.5873 63.4762V55.4762ZM4.71777 29.7381C4.71777 26.9887 6.09858 23.2678 7.45093 19.7729L-0.00997242 16.8859C-1.19161 19.9396 -3.28223 25.1833 -3.28223 29.7381H4.71777ZM7.45031 19.7745L7.6233 19.328L0.163637 16.4378L-0.0093547 16.8843L7.45031 19.7745ZM7.62461 19.3246C7.01225 20.9094 5.25303 21.6502 3.72182 21.0681L6.56432 13.5901C4.04155 12.6312 1.15933 13.861 0.162333 16.4412L7.62461 19.3246ZM3.70133 21.0603C2.13647 20.4556 1.36449 18.7007 1.96326 17.1433L9.4304 20.0142C10.4119 17.4613 9.1451 14.5873 6.58481 13.598L3.70133 21.0603ZM1.96761 17.1321L1.79365 17.5805L9.2521 20.4738L9.42606 20.0254L1.96761 17.1321ZM1.79238 17.5838C1.19423 19.1297 0.420639 21.1233 -0.196696 23.1661C-0.801725 25.1683 -1.34936 27.5063 -1.34936 29.7381H6.65064C6.65064 28.6793 6.93317 27.2279 7.46128 25.4803C7.97709 23.7734 8.63962 22.0568 9.25337 20.4706L1.79238 17.5838ZM-1.34936 29.7381C-1.34936 47.2964 12.9909 61.5434 30.5873 61.5434V53.5434C17.3738 53.5434 6.65064 42.8428 6.65064 29.7381H-1.34936ZM30.5873 61.5434C31.027 61.5434 31.4673 61.5346 31.9052 61.5169L31.583 53.5234C31.2536 53.5367 30.9207 53.5434 30.5873 53.5434V61.5434ZM31.8006 61.5198C30.2861 61.5411 28.8218 60.345 28.7524 58.6056L36.746 58.2864C36.6341 55.482 34.2981 53.4837 31.6877 53.5206L31.8006 61.5198ZM28.7524 58.6053C28.6861 56.9408 29.9797 55.5215 31.6638 55.4543L31.983 63.4479C34.7321 63.3382 36.8549 61.0181 36.746 58.2867L28.7524 58.6053ZM31.6545 55.4547C31.3052 55.4694 30.9501 55.4762 30.5873 55.4762V63.4762C31.0498 63.4762 31.5182 63.4676 31.9922 63.4475L31.6545 55.4547Z" fill="#042E26" mask="url(#path-7-inside-3_2014_73)"/>
<mask id="path-9-inside-4_2014_73" fill="white">
<path d="M6.61387 23.2582C6.2447 23.2582 5.89195 23.0456 5.73152 22.6861L4.32633 19.5509L1.40287 21.0286C0.925452 21.2702 0.344626 21.0769 0.103984 20.6024C-0.136657 20.126 0.0546963 19.5442 0.530181 19.3035L4.35822 17.3697C4.595 17.2508 4.8685 17.2325 5.11784 17.3214C5.36621 17.4093 5.56819 17.5959 5.67643 17.8365L7.49526 21.8965C7.71367 22.3836 7.49526 22.9557 7.00818 23.1731C6.87964 23.2311 6.74627 23.2582 6.61387 23.2582Z"/>
</mask>
<path d="M5.73152 22.6861L9.38434 21.056L9.38164 21.05L5.73152 22.6861ZM4.32633 19.5509L7.97645 17.9149L6.26229 14.0905L2.52191 15.9811L4.32633 19.5509ZM1.40287 21.0286L-0.401545 17.4587L-0.403303 17.4596L1.40287 21.0286ZM0.103984 20.6024L-3.46646 22.4058L-3.46349 22.4116L0.103984 20.6024ZM0.530181 19.3035L-1.27344 15.7333L-1.27606 15.7346L0.530181 19.3035ZM4.35822 17.3697L2.56353 13.7949L2.5546 13.7994L4.35822 17.3697ZM5.11784 17.3214L3.77434 21.089L3.78272 21.092L5.11784 17.3214ZM5.67643 17.8365L9.32687 16.2011L9.32439 16.1956L5.67643 17.8365ZM7.49526 21.8965L3.84483 23.5318L3.84541 23.5331L7.49526 21.8965ZM7.00818 23.1731L5.37757 19.5206L5.37043 19.5238L5.3633 19.527L7.00818 23.1731ZM6.61387 19.2582C7.76232 19.2582 8.877 19.9191 9.38433 21.056L2.07871 24.3161C2.9069 26.172 4.72707 27.2582 6.61387 27.2582V19.2582ZM9.38164 21.05L7.97645 17.9149L0.676204 21.187L2.0814 24.3221L9.38164 21.05ZM2.52191 15.9811L-0.401545 17.4587L3.20728 24.5985L6.13074 23.1208L2.52191 15.9811ZM-0.403303 17.4596C1.10177 16.6979 2.9199 17.3113 3.67146 18.7933L-3.46349 22.4116C-2.23065 24.8426 0.74913 25.8425 3.20904 24.5976L-0.403303 17.4596ZM3.67442 18.7991C4.42908 20.2933 3.83102 22.1161 2.33642 22.8725L-1.27606 15.7346C-3.72162 16.9723 -4.7024 19.9587 -3.46645 22.4057L3.67442 18.7991ZM2.3338 22.8738L6.16184 20.94L2.5546 13.7994L-1.27344 15.7333L2.3338 22.8738ZM6.15291 20.9445C5.42985 21.3075 4.57033 21.3729 3.77434 21.089L6.46133 13.5538C5.16666 13.0921 3.76014 13.1942 2.56353 13.7949L6.15291 20.9445ZM3.78272 21.092C2.99688 20.8137 2.36604 20.2278 2.02847 19.4773L9.32439 16.1956C8.77035 14.9639 7.73554 14.0049 6.45295 13.5508L3.78272 21.092ZM2.02601 19.4718L3.84483 23.5318L11.1457 20.2611L9.32686 16.2011L2.02601 19.4718ZM3.84541 23.5331C3.15933 22.0031 3.84404 20.2052 5.37757 19.5206L8.63878 26.8257C11.1465 25.7062 12.268 22.764 11.1451 20.2598L3.84541 23.5331ZM5.3633 19.527C5.76441 19.346 6.19312 19.2582 6.61387 19.2582V27.2582C7.29942 27.2582 7.99488 27.1162 8.65306 26.8193L5.3633 19.527Z" fill="#042E26" mask="url(#path-9-inside-4_2014_73)"/>
<mask id="path-11-inside-5_2014_73" fill="white">
<path d="M34.0666 29.2742C33.8772 29.2742 33.6877 29.2182 33.5254 29.109L30.4937 27.0592L27.462 29.108C27.1653 29.3081 26.7835 29.3284 26.4675 29.1612C26.1515 28.993 25.9543 28.6654 25.9543 28.3078V15.4813C25.9543 14.9479 26.3873 14.5149 26.9208 14.5149H34.0666C34.6001 14.5149 35.033 14.9479 35.033 15.4813V28.3069C35.033 28.6644 34.8359 28.9921 34.5198 29.1602C34.3778 29.2366 34.2212 29.2742 34.0666 29.2742ZM30.4937 24.9263C30.6821 24.9263 30.8716 24.9814 31.0349 25.0915L33.1001 26.4871V16.4478H27.8872V26.488L29.9525 25.0925C30.1158 24.9814 30.3052 24.9263 30.4937 24.9263Z"/>
</mask>
<path d="M33.5254 29.109L30.7248 33.2511L30.7348 33.2578L33.5254 29.109ZM30.4937 27.0592L33.2942 22.9171L30.4943 21.024L27.694 22.9165L30.4937 27.0592ZM27.462 29.108L30.2573 33.2537L30.2616 33.2507L27.462 29.108ZM26.4675 29.1612L24.1188 33.5752L24.1293 33.5808L26.4675 29.1612ZM34.5198 29.1602L32.1711 24.7462L32.162 24.7511L32.1529 24.7559L34.5198 29.1602ZM31.0349 25.0915L33.8343 20.9487L33.831 20.9464L31.0349 25.0915ZM33.1001 26.4871L30.3007 30.6299L38.1001 35.9001V26.4871H33.1001ZM33.1001 16.4478H38.1001V11.4478H33.1001V16.4478ZM27.8872 16.4478V11.4478H22.8872V16.4478H27.8872ZM27.8872 26.488H22.8872V35.9011L30.6866 30.6309L27.8872 26.488ZM29.9525 25.0925L32.7519 29.2354L32.7586 29.2308L32.7654 29.2262L29.9525 25.0925ZM34.0666 24.2742C34.8578 24.2742 35.6423 24.5071 36.316 24.9602L30.7348 33.2578C31.7332 33.9293 32.8965 34.2742 34.0666 34.2742V24.2742ZM36.3259 24.9669L33.2942 22.9171L27.6931 31.2013L30.7248 33.2511L36.3259 24.9669ZM27.694 22.9165L24.6623 24.9653L30.2616 33.2507L33.2933 31.2019L27.694 22.9165ZM24.6667 24.9624C25.8996 24.1311 27.4911 24.0461 28.8057 24.7416L24.1293 33.5808C26.076 34.6107 28.431 34.4851 30.2573 33.2537L24.6667 24.9624ZM28.8163 24.7472C30.1277 25.445 30.9543 26.8124 30.9543 28.3078H20.9543C20.9543 30.5184 22.1753 32.541 24.1188 33.5752L28.8163 24.7472ZM30.9543 28.3078V15.4813H20.9543V28.3078H30.9543ZM30.9543 15.4813C30.9543 17.7093 29.1487 19.5149 26.9208 19.5149V9.51489C23.6259 9.51489 20.9543 12.1864 20.9543 15.4813H30.9543ZM26.9208 19.5149H34.0666V9.51489H26.9208V19.5149ZM34.0666 19.5149C31.8386 19.5149 30.033 17.7093 30.033 15.4813H40.033C40.033 12.1864 37.3615 9.51489 34.0666 9.51489V19.5149ZM30.033 15.4813V28.3069H40.033V15.4813H30.033ZM30.033 28.3069C30.033 26.8115 30.8596 25.4441 32.1711 24.7462L36.8686 33.5742C38.8121 32.54 40.033 30.5174 40.033 28.3069H30.033ZM32.1529 24.7559C32.7548 24.4325 33.4138 24.2742 34.0666 24.2742V34.2742C35.0286 34.2742 36.0007 34.0406 36.8868 33.5645L32.1529 24.7559ZM30.4937 29.9263C29.7124 29.9263 28.9234 29.6984 28.2388 29.2366L33.831 20.9464C32.8198 20.2643 31.6518 19.9263 30.4937 19.9263V29.9263ZM28.2355 29.2344L30.3007 30.6299L35.8995 22.3442L33.8343 20.9487L28.2355 29.2344ZM38.1001 26.4871V16.4478H28.1001V26.4871H38.1001ZM33.1001 11.4478H27.8872V21.4478H33.1001V11.4478ZM22.8872 16.4478V26.488H32.8872V16.4478H22.8872ZM30.6866 30.6309L32.7519 29.2354L27.1531 20.9496L25.0878 22.3452L30.6866 30.6309ZM32.7654 29.2262C32.0728 29.6975 31.276 29.9263 30.4937 29.9263V19.9263C29.3344 19.9263 28.1589 20.2652 27.1396 20.9588L32.7654 29.2262Z" fill="#042E26" mask="url(#path-11-inside-5_2014_73)"/>
<mask id="path-13-inside-6_2014_73" fill="white">
<path d="M45.4875 45.4022H15.4991C14.9657 45.4022 14.5327 44.9692 14.5327 44.4357V21.8947C14.5327 21.3612 14.9657 20.9282 15.4991 20.9282C16.0326 20.9282 16.4656 21.3612 16.4656 21.8947V43.4693H44.5211V21.8947C44.5211 21.3612 44.9541 20.9282 45.4875 20.9282C46.021 20.9282 46.454 21.3612 46.454 21.8947V44.4357C46.454 44.9692 46.021 45.4022 45.4875 45.4022Z"/>
</mask>
<path d="M16.4656 43.4693H11.4656V48.4693H16.4656V43.4693ZM44.5211 43.4693V48.4693H49.5211V43.4693H44.5211ZM45.4875 40.4022H15.4991V50.4022H45.4875V40.4022ZM15.4991 40.4022C17.7271 40.4022 19.5327 42.2078 19.5327 44.4357H9.53271C9.53271 47.7306 12.2043 50.4022 15.4991 50.4022V40.4022ZM19.5327 44.4357V21.8947H9.53271V44.4357H19.5327ZM19.5327 21.8947C19.5327 24.1226 17.7271 25.9282 15.4991 25.9282V15.9282C12.2043 15.9282 9.53271 18.5998 9.53271 21.8947H19.5327ZM15.4991 25.9282C13.2712 25.9282 11.4656 24.1226 11.4656 21.8947H21.4656C21.4656 18.5998 18.794 15.9282 15.4991 15.9282V25.9282ZM11.4656 21.8947V43.4693H21.4656V21.8947H11.4656ZM16.4656 48.4693H44.5211V38.4693H16.4656V48.4693ZM49.5211 43.4693V21.8947H39.5211V43.4693H49.5211ZM49.5211 21.8947C49.5211 24.1226 47.7155 25.9282 45.4875 25.9282V15.9282C42.1927 15.9282 39.5211 18.5998 39.5211 21.8947H49.5211ZM45.4875 25.9282C43.2596 25.9282 41.454 24.1226 41.454 21.8947H51.454C51.454 18.5998 48.7824 15.9282 45.4875 15.9282V25.9282ZM41.454 21.8947V44.4357H51.454V21.8947H41.454ZM41.454 44.4357C41.454 42.2078 43.2596 40.4022 45.4875 40.4022V50.4022C48.7824 50.4022 51.454 47.7306 51.454 44.4357H41.454Z" fill="#042E26" mask="url(#path-13-inside-6_2014_73)"/>
<mask id="path-15-inside-7_2014_73" fill="white">
<path d="M45.4876 22.861H34.0663C33.5328 22.861 33.0999 22.428 33.0999 21.8946V15.4813C33.0999 14.9479 33.5328 14.5149 34.0663 14.5149H45.4876C46.0211 14.5149 46.454 14.9479 46.454 15.4813V21.8946C46.454 22.428 46.0211 22.861 45.4876 22.861ZM35.0327 20.9281H44.5212V16.4478H35.0327V20.9281Z"/>
</mask>
<path d="M35.0327 20.9281H30.0327V25.9281H35.0327V20.9281ZM44.5212 20.9281V25.9281H49.5212V20.9281H44.5212ZM44.5212 16.4478H49.5212V11.4478H44.5212V16.4478ZM35.0327 16.4478V11.4478H30.0327V16.4478H35.0327ZM45.4876 17.861H34.0663V27.861H45.4876V17.861ZM34.0663 17.861C36.2942 17.861 38.0999 19.6666 38.0999 21.8946H28.0999C28.0999 25.1895 30.7714 27.861 34.0663 27.861V17.861ZM38.0999 21.8946V15.4813H28.0999V21.8946H38.0999ZM38.0999 15.4813C38.0999 17.7093 36.2942 19.5149 34.0663 19.5149V9.51489C30.7714 9.51489 28.0999 12.1864 28.0999 15.4813H38.0999ZM34.0663 19.5149H45.4876V9.51489H34.0663V19.5149ZM45.4876 19.5149C43.2596 19.5149 41.454 17.7093 41.454 15.4813H51.454C51.454 12.1864 48.7825 9.51489 45.4876 9.51489V19.5149ZM41.454 15.4813V21.8946H51.454V15.4813H41.454ZM41.454 21.8946C41.454 19.6666 43.2596 17.861 45.4876 17.861V27.861C48.7825 27.861 51.454 25.1895 51.454 21.8946H41.454ZM35.0327 25.9281H44.5212V15.9281H35.0327V25.9281ZM49.5212 20.9281V16.4478H39.5212V20.9281H49.5212ZM44.5212 11.4478H35.0327V21.4478H44.5212V11.4478ZM30.0327 16.4478V20.9281H40.0327V16.4478H30.0327Z" fill="#042E26" mask="url(#path-15-inside-7_2014_73)"/>
<mask id="path-17-inside-8_2014_73" fill="white">
<path d="M26.9204 22.861H15.4991C14.9657 22.861 14.5327 22.428 14.5327 21.8946V15.4813C14.5327 14.9479 14.9657 14.5149 15.4991 14.5149H26.9204C27.4539 14.5149 27.8869 14.9479 27.8869 15.4813V21.8946C27.8869 22.428 27.4539 22.861 26.9204 22.861ZM16.4656 20.9281H25.954V16.4478H16.4656V20.9281Z"/>
</mask>
<path d="M27.8869 21.8946L22.8869 21.8946L27.8869 21.8946ZM16.4656 20.9281H11.4656V25.9281H16.4656V20.9281ZM25.954 20.9281V25.9281H30.954V20.9281H25.954ZM25.954 16.4478H30.954V11.4478H25.954V16.4478ZM16.4656 16.4478V11.4478H11.4656V16.4478H16.4656ZM26.9204 17.861H15.4991V27.861H26.9204V17.861ZM15.4991 17.861C17.7271 17.861 19.5327 19.6666 19.5327 21.8946H9.53271C9.53271 25.1895 12.2043 27.861 15.4991 27.861V17.861ZM19.5327 21.8946V15.4813H9.53271V21.8946H19.5327ZM19.5327 15.4813C19.5327 17.7093 17.7271 19.5149 15.4991 19.5149V9.51489C12.2043 9.51489 9.53271 12.1864 9.53271 15.4813H19.5327ZM15.4991 19.5149H26.9204V9.51489H15.4991V19.5149ZM26.9204 19.5149C24.6925 19.5149 22.8869 17.7093 22.8869 15.4813H32.8869C32.8869 12.1864 30.2153 9.51489 26.9204 9.51489V19.5149ZM22.8869 15.4813V21.8946H32.8869V15.4813H22.8869ZM22.8869 21.8946C22.8869 19.6666 24.6925 17.861 26.9204 17.861V27.861C30.2153 27.861 32.8869 25.1895 32.8869 21.8946L22.8869 21.8946ZM16.4656 25.9281H25.954V15.9281H16.4656V25.9281ZM30.954 20.9281V16.4478H20.954V20.9281H30.954ZM25.954 11.4478H16.4656V21.4478H25.954V11.4478ZM11.4656 16.4478V20.9281H21.4656V16.4478H11.4656Z" fill="#042E26" mask="url(#path-17-inside-8_2014_73)"/>
<mask id="path-19-inside-9_2014_73" fill="white">
<path d="M27.0009 40.8559C26.4674 40.8559 26.0344 40.4229 26.0344 39.8895V33.5013C26.0344 32.9679 26.4674 32.5349 27.0009 32.5349C27.5343 32.5349 27.9673 32.9679 27.9673 33.5013V39.8895C27.9673 40.4229 27.5343 40.8559 27.0009 40.8559Z"/>
</mask>
<path d="M27.0009 38.8559C27.572 38.8559 28.0344 39.3184 28.0344 39.8895H24.0344C24.0344 41.5275 25.3628 42.8559 27.0009 42.8559V38.8559ZM28.0344 39.8895V33.5013H24.0344V39.8895H28.0344ZM28.0344 33.5013C28.0344 34.0724 27.572 34.5349 27.0009 34.5349V30.5349C25.3628 30.5349 24.0344 31.8633 24.0344 33.5013H28.0344ZM27.0009 34.5349C26.4298 34.5349 25.9673 34.0724 25.9673 33.5013H29.9673C29.9673 31.8633 28.6389 30.5349 27.0009 30.5349V34.5349ZM25.9673 33.5013V39.8895H29.9673V33.5013H25.9673ZM25.9673 39.8895C25.9673 39.3184 26.4298 38.8559 27.0009 38.8559V42.8559C28.6389 42.8559 29.9673 41.5275 29.9673 39.8895H25.9673Z" fill="#042E26" mask="url(#path-19-inside-9_2014_73)"/>
<mask id="path-21-inside-10_2014_73" fill="white">
<path d="M29.322 36.3416C29.0524 36.3416 28.7837 36.2295 28.5924 36.0102L27.0258 34.2097L25.3887 35.9783C25.0253 36.3687 24.4145 36.3929 24.0221 36.0304C23.6307 35.668 23.6075 35.0563 23.9699 34.6639L26.3387 32.1058C26.5252 31.9047 26.8267 31.7888 27.0625 31.7965C27.337 31.8004 27.597 31.9212 27.7767 32.128L30.0507 34.7403C30.4006 35.1433 30.359 35.7531 29.956 36.1039C29.7724 36.2634 29.5472 36.3416 29.322 36.3416Z"/>
</mask>
<path d="M28.5924 36.0102L27.0836 37.323L27.0852 37.3248L28.5924 36.0102ZM27.0258 34.2097L28.5346 32.8969L27.0719 31.2158L25.5581 32.8511L27.0258 34.2097ZM25.3887 35.9783L26.8527 37.3408L26.8564 37.3369L25.3887 35.9783ZM24.0221 36.0304L22.6633 37.498L22.6651 37.4996L24.0221 36.0304ZM23.9699 34.6639L22.5024 33.3051L22.5007 33.3069L23.9699 34.6639ZM26.3387 32.1058L24.8726 30.7454L24.8712 30.7469L26.3387 32.1058ZM27.0625 31.7965L26.997 33.7954L27.0157 33.796L27.0344 33.7963L27.0625 31.7965ZM27.7767 32.128L26.2672 33.44L26.2682 33.4412L27.7767 32.128ZM30.0507 34.7403L31.561 33.4292L31.5592 33.4271L30.0507 34.7403ZM29.956 36.1039L31.2674 37.614L31.2692 37.6124L29.956 36.1039ZM29.322 34.3416C29.6047 34.3416 29.8947 34.4606 30.0996 34.6955L27.0852 37.3248C27.6728 37.9985 28.5001 38.3416 29.322 38.3416V34.3416ZM30.1012 34.6973L28.5346 32.8969L25.517 35.5225L27.0836 37.323L30.1012 34.6973ZM25.5581 32.8511L23.921 34.6196L26.8564 37.3369L28.4935 35.5683L25.5581 32.8511ZM23.9246 34.6157C24.3097 34.202 24.96 34.1741 25.3791 34.5613L22.6651 37.4996C23.869 38.6116 25.7409 38.5354 26.8527 37.3408L23.9246 34.6157ZM25.3809 34.5629C25.802 34.9528 25.823 35.6053 25.4391 36.0209L22.5007 33.3069C21.392 34.5073 21.4594 36.3833 22.6633 37.498L25.3809 34.5629ZM25.4374 36.0227L27.8062 33.4646L24.8712 30.7469L22.5024 33.3051L25.4374 36.0227ZM27.8048 33.4661C27.6718 33.6095 27.5406 33.682 27.4483 33.7203C27.3606 33.7566 27.2112 33.8025 26.997 33.7954L27.1281 29.7976C26.3189 29.771 25.4568 30.1157 24.8726 30.7454L27.8048 33.4661ZM27.0344 33.7963C26.7397 33.7922 26.4609 33.6628 26.2672 33.44L29.2862 30.816C28.733 30.1795 27.9343 29.8086 27.0907 29.7967L27.0344 33.7963ZM26.2682 33.4412L28.5422 36.0534L31.5592 33.4271L29.2852 30.8148L26.2682 33.4412ZM28.5404 36.0514C28.169 35.6235 28.2111 34.9712 28.6429 34.5954L31.2692 37.6124C32.507 36.5349 32.6322 34.663 31.561 33.4292L28.5404 36.0514ZM28.6447 34.5938C28.8357 34.4279 29.0799 34.3416 29.322 34.3416V38.3416C30.0145 38.3416 30.7091 38.0988 31.2674 37.614L28.6447 34.5938Z" fill="#042E26" mask="url(#path-21-inside-10_2014_73)"/>
<mask id="path-23-inside-11_2014_73" fill="white">
<path d="M34.2819 40.1188C33.7484 40.1188 33.3154 39.6859 33.3154 39.1524V32.7643C33.3154 32.2308 33.7484 31.7979 34.2819 31.7979C34.8153 31.7979 35.2483 32.2308 35.2483 32.7643V39.1524C35.2483 39.6859 34.8153 40.1188 34.2819 40.1188Z"/>
</mask>
<path d="M34.2819 38.1188C34.853 38.1188 35.3154 38.5813 35.3154 39.1524H31.3154C31.3154 40.7904 32.6438 42.1188 34.2819 42.1188V38.1188ZM35.3154 39.1524V32.7643H31.3154V39.1524H35.3154ZM35.3154 32.7643C35.3154 33.3354 34.853 33.7979 34.2819 33.7979V29.7979C32.6438 29.7979 31.3154 31.1262 31.3154 32.7643H35.3154ZM34.2819 33.7979C33.7108 33.7979 33.2483 33.3354 33.2483 32.7643H37.2483C37.2483 31.1262 35.9199 29.7979 34.2819 29.7979V33.7979ZM33.2483 32.7643V39.1524H37.2483V32.7643H33.2483ZM33.2483 39.1524C33.2483 38.5813 33.7108 38.1188 34.2819 38.1188V42.1188C35.9199 42.1188 37.2483 40.7904 37.2483 39.1524H33.2483Z" fill="#042E26" mask="url(#path-23-inside-11_2014_73)"/>
<mask id="path-25-inside-12_2014_73" fill="white">
<path d="M34.2346 40.8559C33.9553 40.8559 33.6896 40.7351 33.5059 40.5235L31.2329 37.9112C30.883 37.5082 30.9246 36.8984 31.3276 36.5476C31.7296 36.1977 32.3404 36.2393 32.6912 36.6423L34.2085 38.3857L35.5577 36.7215C35.894 36.3069 36.5028 36.2432 36.9174 36.5795C37.332 36.9158 37.3958 37.5246 37.0595 37.9392L34.9855 40.4974C34.8058 40.7187 34.5371 40.8501 34.252 40.855C34.2462 40.8559 34.2404 40.8559 34.2346 40.8559Z"/>
</mask>
<path d="M33.5059 40.5235L35.0166 39.2128L35.0147 39.2106L33.5059 40.5235ZM31.2329 37.9112L29.7226 39.2223L29.7241 39.2241L31.2329 37.9112ZM31.3276 36.5476L30.0147 35.0388L30.0144 35.0391L31.3276 36.5476ZM32.6912 36.6423L34.1999 35.3293L34.1997 35.3291L32.6912 36.6423ZM34.2085 38.3857L32.6999 39.6987L34.2628 41.4946L35.7621 39.6452L34.2085 38.3857ZM35.5577 36.7215L34.0044 35.4616L34.0041 35.462L35.5577 36.7215ZM37.0595 37.9392L35.5063 36.6793L35.5059 36.6797L37.0595 37.9392ZM34.9855 40.4974L36.538 41.7583L36.5391 41.7569L34.9855 40.4974ZM34.252 40.855L34.2181 38.8553L34.0697 38.8578L33.9232 38.8822L34.252 40.855ZM34.2346 38.8559C34.5337 38.8559 34.8195 38.9857 35.0166 39.2128L31.9952 41.8341C32.5596 42.4846 33.3769 42.8559 34.2346 42.8559V38.8559ZM35.0147 39.2106L32.7417 36.5984L29.7241 39.2241L31.9972 41.8363L35.0147 39.2106ZM32.7432 36.6001C33.1146 37.028 33.0725 37.6802 32.6408 38.0561L30.0144 35.0391C28.7766 36.1166 28.6515 37.9885 29.7226 39.2223L32.7432 36.6001ZM32.6405 38.0563C32.2102 38.4307 31.5578 38.3863 31.1827 37.9554L34.1997 35.3291C33.123 34.0922 31.249 33.9647 30.0147 35.0388L32.6405 38.0563ZM31.1826 37.9553L32.6999 39.6987L35.7172 37.0728L34.1999 35.3293L31.1826 37.9553ZM35.7621 39.6452L37.1113 37.981L34.0041 35.462L32.6549 37.1262L35.7621 39.6452ZM37.1109 37.9815C36.7521 38.4238 36.1016 38.493 35.6575 38.1327L38.1774 35.0262C36.9041 33.9933 35.0359 34.1901 34.0044 35.4616L37.1109 37.9815ZM35.6575 38.1327C35.2152 37.7739 35.146 37.1234 35.5063 36.6793L38.6127 39.1992C39.6456 37.9259 39.4489 36.0577 38.1774 35.0262L35.6575 38.1327ZM35.5059 36.6797L33.432 39.2379L36.5391 41.7569L38.6131 39.1988L35.5059 36.6797ZM33.4331 39.2365C33.6235 39.0021 33.9094 38.8605 34.2181 38.8553L34.2859 42.8547C35.1649 42.8398 35.9881 42.4353 36.538 41.7583L33.4331 39.2365ZM33.9232 38.8822C34.0257 38.8651 34.1094 38.8597 34.1602 38.8575C34.2058 38.8556 34.2445 38.8559 34.2346 38.8559V42.8559C34.2349 42.8559 34.2382 42.8559 34.242 42.8559C34.246 42.8559 34.2522 42.8559 34.2597 42.8558C34.2745 42.8557 34.2979 42.8553 34.3265 42.8541C34.383 42.8517 34.4726 42.8458 34.5808 42.8278L33.9232 38.8822Z" fill="#042E26" mask="url(#path-25-inside-12_2014_73)"/>
</svg>
