<svg width="62" height="62" viewBox="0 0 62 62" fill="none" xmlns="http://www.w3.org/2000/svg">
<mask id="path-1-outside-1_6_313" maskUnits="userSpaceOnUse" x="0" y="0" width="62" height="62" fill="black">
<rect fill="white" width="62" height="62"/>
<path d="M27.2255 27.0003H18.8021C17.7909 27.0003 16.9631 27.823 16.9631 28.8393V59.1604C16.9631 60.1716 17.7858 60.9994 18.8021 60.9994H27.2281C28.2393 60.9994 29.0671 60.1767 29.0671 59.1604V28.8393C29.0595 27.8205 28.2367 27.0003 27.2255 27.0003ZM27.8394 59.153C27.8394 59.4918 27.5643 59.7669 27.2255 59.7669H18.8021C18.4633 59.7669 18.1882 59.4918 18.1882 59.153V28.8319C18.1882 28.4932 18.4633 28.2181 18.8021 28.2181H27.2281C27.5669 28.2181 27.842 28.4932 27.842 28.8319L27.8394 59.153ZM43.1883 32.8871H34.7649C33.7537 32.8871 32.9259 33.7099 32.9259 34.7262V59.1584C32.9259 60.1697 33.7486 60.9975 34.7649 60.9975L43.1883 61C44.1996 61 45.0274 60.1773 45.0274 59.161V34.7215C45.0274 33.7103 44.1996 32.8871 43.1883 32.8871ZM43.8022 59.153C43.8022 59.4918 43.5271 59.7669 43.1883 59.7669H34.7649C34.4262 59.7669 34.1511 59.4918 34.1511 59.153V34.7208C34.1511 34.382 34.4262 34.1069 34.7649 34.1069H43.1883C43.5271 34.1069 43.8022 34.382 43.8022 34.7208V59.153ZM59.1512 15.8441H50.7278C49.7166 15.8441 48.8888 16.6668 48.8888 17.6831V59.1604C48.8888 60.1716 49.7115 60.9994 50.7278 60.9994H59.1538C60.165 60.9994 60.9928 60.1767 60.9928 59.1604L60.9903 17.6753C60.9903 16.6641 60.1675 15.8441 59.1512 15.8441ZM59.765 59.153C59.765 59.4918 59.49 59.7669 59.1512 59.7669H50.7278C50.389 59.7669 50.1139 59.4918 50.1139 59.153V17.6757C50.1139 17.337 50.389 17.0619 50.7278 17.0619H59.1538C59.4926 17.0619 59.7677 17.337 59.7677 17.6757L59.765 59.153ZM11.2624 42.0441H2.83902C1.82271 42.0441 1 42.8643 1 43.8755V59.1534C1 60.1697 1.82271 60.9924 2.83902 60.9924H11.265C12.2762 60.9924 13.104 60.1697 13.104 59.1534L13.1015 43.8755C13.0964 42.8643 12.2736 42.0441 11.2624 42.0441ZM11.8712 59.153C11.8712 59.4918 11.5961 59.7669 11.2573 59.7669H2.83914C2.50037 59.7669 2.22528 59.4918 2.22528 59.153V43.8751C2.22528 43.5363 2.50037 43.2613 2.83914 43.2613H11.2651C11.6039 43.2613 11.879 43.5363 11.879 43.8751L11.8765 59.153H11.8712ZM7.05202 36.2264C9.50489 36.2264 11.4993 34.232 11.4993 31.7791C11.4993 30.7628 11.1529 29.8229 10.5721 29.0741L20.3786 19.0844C21.1147 19.632 22.0291 19.9657 23.0199 19.9657C24.7164 19.9657 26.1886 19.0131 26.94 17.6173L34.6474 20.4599C34.5812 20.7655 34.543 21.0788 34.543 21.4048C34.543 23.8577 36.5374 25.8521 38.9902 25.8521C41.4431 25.8521 43.4375 23.8577 43.4375 21.4048C43.4375 20.4013 43.0988 19.4741 42.5308 18.7303L52.2785 8.98781C53.0223 9.55582 53.9469 9.89457 54.953 9.89457C57.4059 9.89457 59.4003 7.90016 59.4003 5.44729C59.4003 2.99441 57.4059 1 54.953 1C52.5001 1 50.5057 2.99441 50.5057 5.44729C50.5057 6.45088 50.8445 7.37799 51.4049 8.1218L41.6493 17.8643C40.9056 17.2963 39.9809 16.9576 38.9748 16.9576C37.2784 16.9576 35.8061 17.9102 35.0548 19.306L27.3473 16.4634C27.4136 16.1578 27.4518 15.8445 27.4518 15.5184C27.4518 13.0656 25.4574 11.0712 23.0045 11.0712C20.5516 11.0712 18.5572 13.0656 18.5572 15.5184C18.5572 16.5348 18.9036 17.4746 19.4844 18.2235L9.69034 28.2183C8.95422 27.6707 8.03983 27.337 7.04895 27.337C4.59607 27.337 2.60166 29.3314 2.60166 31.7843C2.60421 34.2372 4.59914 36.2264 7.05202 36.2264ZM54.9385 2.22699C56.7113 2.22699 58.1606 3.6738 58.1606 5.44911C58.1606 7.22195 56.7138 8.67123 54.9385 8.67123C53.1656 8.67123 51.7163 7.22443 51.7163 5.44911C51.724 3.66865 53.1657 2.22699 54.9385 2.22699ZM38.9759 18.185C40.7487 18.185 42.198 19.6318 42.198 21.4071C42.198 23.18 40.7512 24.6292 38.9759 24.6292C37.203 24.6292 35.7537 23.1824 35.7537 21.4071C35.7563 19.6317 37.2031 18.185 38.9759 18.185ZM23.0152 12.3012C24.7881 12.3012 26.2374 13.748 26.2374 15.5233C26.2374 17.2961 24.7906 18.7454 23.0152 18.7454C21.2424 18.7454 19.7931 17.2986 19.7931 15.5233C19.7931 13.7428 21.2399 12.3012 23.0152 12.3012ZM7.05267 28.5643C8.8255 28.5643 10.2748 30.0111 10.2748 31.7865C10.2748 33.5593 8.82798 35.0086 7.05267 35.0086C5.27983 35.0086 3.83055 33.5618 3.83055 31.7865C3.83055 30.0111 5.2722 28.5643 7.05267 28.5643Z"/>
</mask>
<path d="M27.2255 27.0003H18.8021C17.7909 27.0003 16.9631 27.823 16.9631 28.8393V59.1604C16.9631 60.1716 17.7858 60.9994 18.8021 60.9994H27.2281C28.2393 60.9994 29.0671 60.1767 29.0671 59.1604V28.8393C29.0595 27.8205 28.2367 27.0003 27.2255 27.0003ZM27.8394 59.153C27.8394 59.4918 27.5643 59.7669 27.2255 59.7669H18.8021C18.4633 59.7669 18.1882 59.4918 18.1882 59.153V28.8319C18.1882 28.4932 18.4633 28.2181 18.8021 28.2181H27.2281C27.5669 28.2181 27.842 28.4932 27.842 28.8319L27.8394 59.153ZM43.1883 32.8871H34.7649C33.7537 32.8871 32.9259 33.7099 32.9259 34.7262V59.1584C32.9259 60.1697 33.7486 60.9975 34.7649 60.9975L43.1883 61C44.1996 61 45.0274 60.1773 45.0274 59.161V34.7215C45.0274 33.7103 44.1996 32.8871 43.1883 32.8871ZM43.8022 59.153C43.8022 59.4918 43.5271 59.7669 43.1883 59.7669H34.7649C34.4262 59.7669 34.1511 59.4918 34.1511 59.153V34.7208C34.1511 34.382 34.4262 34.1069 34.7649 34.1069H43.1883C43.5271 34.1069 43.8022 34.382 43.8022 34.7208V59.153ZM59.1512 15.8441H50.7278C49.7166 15.8441 48.8888 16.6668 48.8888 17.6831V59.1604C48.8888 60.1716 49.7115 60.9994 50.7278 60.9994H59.1538C60.165 60.9994 60.9928 60.1767 60.9928 59.1604L60.9903 17.6753C60.9903 16.6641 60.1675 15.8441 59.1512 15.8441ZM59.765 59.153C59.765 59.4918 59.49 59.7669 59.1512 59.7669H50.7278C50.389 59.7669 50.1139 59.4918 50.1139 59.153V17.6757C50.1139 17.337 50.389 17.0619 50.7278 17.0619H59.1538C59.4926 17.0619 59.7677 17.337 59.7677 17.6757L59.765 59.153ZM11.2624 42.0441H2.83902C1.82271 42.0441 1 42.8643 1 43.8755V59.1534C1 60.1697 1.82271 60.9924 2.83902 60.9924H11.265C12.2762 60.9924 13.104 60.1697 13.104 59.1534L13.1015 43.8755C13.0964 42.8643 12.2736 42.0441 11.2624 42.0441ZM11.8712 59.153C11.8712 59.4918 11.5961 59.7669 11.2573 59.7669H2.83914C2.50037 59.7669 2.22528 59.4918 2.22528 59.153V43.8751C2.22528 43.5363 2.50037 43.2613 2.83914 43.2613H11.2651C11.6039 43.2613 11.879 43.5363 11.879 43.8751L11.8765 59.153H11.8712ZM7.05202 36.2264C9.50489 36.2264 11.4993 34.232 11.4993 31.7791C11.4993 30.7628 11.1529 29.8229 10.5721 29.0741L20.3786 19.0844C21.1147 19.632 22.0291 19.9657 23.0199 19.9657C24.7164 19.9657 26.1886 19.0131 26.94 17.6173L34.6474 20.4599C34.5812 20.7655 34.543 21.0788 34.543 21.4048C34.543 23.8577 36.5374 25.8521 38.9902 25.8521C41.4431 25.8521 43.4375 23.8577 43.4375 21.4048C43.4375 20.4013 43.0988 19.4741 42.5308 18.7303L52.2785 8.98781C53.0223 9.55582 53.9469 9.89457 54.953 9.89457C57.4059 9.89457 59.4003 7.90016 59.4003 5.44729C59.4003 2.99441 57.4059 1 54.953 1C52.5001 1 50.5057 2.99441 50.5057 5.44729C50.5057 6.45088 50.8445 7.37799 51.4049 8.1218L41.6493 17.8643C40.9056 17.2963 39.9809 16.9576 38.9748 16.9576C37.2784 16.9576 35.8061 17.9102 35.0548 19.306L27.3473 16.4634C27.4136 16.1578 27.4518 15.8445 27.4518 15.5184C27.4518 13.0656 25.4574 11.0712 23.0045 11.0712C20.5516 11.0712 18.5572 13.0656 18.5572 15.5184C18.5572 16.5348 18.9036 17.4746 19.4844 18.2235L9.69034 28.2183C8.95422 27.6707 8.03983 27.337 7.04895 27.337C4.59607 27.337 2.60166 29.3314 2.60166 31.7843C2.60421 34.2372 4.59914 36.2264 7.05202 36.2264ZM54.9385 2.22699C56.7113 2.22699 58.1606 3.6738 58.1606 5.44911C58.1606 7.22195 56.7138 8.67123 54.9385 8.67123C53.1656 8.67123 51.7163 7.22443 51.7163 5.44911C51.724 3.66865 53.1657 2.22699 54.9385 2.22699ZM38.9759 18.185C40.7487 18.185 42.198 19.6318 42.198 21.4071C42.198 23.18 40.7512 24.6292 38.9759 24.6292C37.203 24.6292 35.7537 23.1824 35.7537 21.4071C35.7563 19.6317 37.2031 18.185 38.9759 18.185ZM23.0152 12.3012C24.7881 12.3012 26.2374 13.748 26.2374 15.5233C26.2374 17.2961 24.7906 18.7454 23.0152 18.7454C21.2424 18.7454 19.7931 17.2986 19.7931 15.5233C19.7931 13.7428 21.2399 12.3012 23.0152 12.3012ZM7.05267 28.5643C8.8255 28.5643 10.2748 30.0111 10.2748 31.7865C10.2748 33.5593 8.82798 35.0086 7.05267 35.0086C5.27983 35.0086 3.83055 33.5618 3.83055 31.7865C3.83055 30.0111 5.2722 28.5643 7.05267 28.5643Z" fill="#042E26"/>
<path d="M27.2255 27.0003H18.8021C17.7909 27.0003 16.9631 27.823 16.9631 28.8393V59.1604C16.9631 60.1716 17.7858 60.9994 18.8021 60.9994H27.2281C28.2393 60.9994 29.0671 60.1767 29.0671 59.1604V28.8393C29.0595 27.8205 28.2367 27.0003 27.2255 27.0003ZM27.8394 59.153C27.8394 59.4918 27.5643 59.7669 27.2255 59.7669H18.8021C18.4633 59.7669 18.1882 59.4918 18.1882 59.153V28.8319C18.1882 28.4932 18.4633 28.2181 18.8021 28.2181H27.2281C27.5669 28.2181 27.842 28.4932 27.842 28.8319L27.8394 59.153ZM43.1883 32.8871H34.7649C33.7537 32.8871 32.9259 33.7099 32.9259 34.7262V59.1584C32.9259 60.1697 33.7486 60.9975 34.7649 60.9975L43.1883 61C44.1996 61 45.0274 60.1773 45.0274 59.161V34.7215C45.0274 33.7103 44.1996 32.8871 43.1883 32.8871ZM43.8022 59.153C43.8022 59.4918 43.5271 59.7669 43.1883 59.7669H34.7649C34.4262 59.7669 34.1511 59.4918 34.1511 59.153V34.7208C34.1511 34.382 34.4262 34.1069 34.7649 34.1069H43.1883C43.5271 34.1069 43.8022 34.382 43.8022 34.7208V59.153ZM59.1512 15.8441H50.7278C49.7166 15.8441 48.8888 16.6668 48.8888 17.6831V59.1604C48.8888 60.1716 49.7115 60.9994 50.7278 60.9994H59.1538C60.165 60.9994 60.9928 60.1767 60.9928 59.1604L60.9903 17.6753C60.9903 16.6641 60.1675 15.8441 59.1512 15.8441ZM59.765 59.153C59.765 59.4918 59.49 59.7669 59.1512 59.7669H50.7278C50.389 59.7669 50.1139 59.4918 50.1139 59.153V17.6757C50.1139 17.337 50.389 17.0619 50.7278 17.0619H59.1538C59.4926 17.0619 59.7677 17.337 59.7677 17.6757L59.765 59.153ZM11.2624 42.0441H2.83902C1.82271 42.0441 1 42.8643 1 43.8755V59.1534C1 60.1697 1.82271 60.9924 2.83902 60.9924H11.265C12.2762 60.9924 13.104 60.1697 13.104 59.1534L13.1015 43.8755C13.0964 42.8643 12.2736 42.0441 11.2624 42.0441ZM11.8712 59.153C11.8712 59.4918 11.5961 59.7669 11.2573 59.7669H2.83914C2.50037 59.7669 2.22528 59.4918 2.22528 59.153V43.8751C2.22528 43.5363 2.50037 43.2613 2.83914 43.2613H11.2651C11.6039 43.2613 11.879 43.5363 11.879 43.8751L11.8765 59.153H11.8712ZM7.05202 36.2264C9.50489 36.2264 11.4993 34.232 11.4993 31.7791C11.4993 30.7628 11.1529 29.8229 10.5721 29.0741L20.3786 19.0844C21.1147 19.632 22.0291 19.9657 23.0199 19.9657C24.7164 19.9657 26.1886 19.0131 26.94 17.6173L34.6474 20.4599C34.5812 20.7655 34.543 21.0788 34.543 21.4048C34.543 23.8577 36.5374 25.8521 38.9902 25.8521C41.4431 25.8521 43.4375 23.8577 43.4375 21.4048C43.4375 20.4013 43.0988 19.4741 42.5308 18.7303L52.2785 8.98781C53.0223 9.55582 53.9469 9.89457 54.953 9.89457C57.4059 9.89457 59.4003 7.90016 59.4003 5.44729C59.4003 2.99441 57.4059 1 54.953 1C52.5001 1 50.5057 2.99441 50.5057 5.44729C50.5057 6.45088 50.8445 7.37799 51.4049 8.1218L41.6493 17.8643C40.9056 17.2963 39.9809 16.9576 38.9748 16.9576C37.2784 16.9576 35.8061 17.9102 35.0548 19.306L27.3473 16.4634C27.4136 16.1578 27.4518 15.8445 27.4518 15.5184C27.4518 13.0656 25.4574 11.0712 23.0045 11.0712C20.5516 11.0712 18.5572 13.0656 18.5572 15.5184C18.5572 16.5348 18.9036 17.4746 19.4844 18.2235L9.69034 28.2183C8.95422 27.6707 8.03983 27.337 7.04895 27.337C4.59607 27.337 2.60166 29.3314 2.60166 31.7843C2.60421 34.2372 4.59914 36.2264 7.05202 36.2264ZM54.9385 2.22699C56.7113 2.22699 58.1606 3.6738 58.1606 5.44911C58.1606 7.22195 56.7138 8.67123 54.9385 8.67123C53.1656 8.67123 51.7163 7.22443 51.7163 5.44911C51.724 3.66865 53.1657 2.22699 54.9385 2.22699ZM38.9759 18.185C40.7487 18.185 42.198 19.6318 42.198 21.4071C42.198 23.18 40.7512 24.6292 38.9759 24.6292C37.203 24.6292 35.7537 23.1824 35.7537 21.4071C35.7563 19.6317 37.2031 18.185 38.9759 18.185ZM23.0152 12.3012C24.7881 12.3012 26.2374 13.748 26.2374 15.5233C26.2374 17.2961 24.7906 18.7454 23.0152 18.7454C21.2424 18.7454 19.7931 17.2986 19.7931 15.5233C19.7931 13.7428 21.2399 12.3012 23.0152 12.3012ZM7.05267 28.5643C8.8255 28.5643 10.2748 30.0111 10.2748 31.7865C10.2748 33.5593 8.82798 35.0086 7.05267 35.0086C5.27983 35.0086 3.83055 33.5618 3.83055 31.7865C3.83055 30.0111 5.2722 28.5643 7.05267 28.5643Z" stroke="#042E26" mask="url(#path-1-outside-1_6_313)"/>
</svg>
