<svg width="67" height="61" viewBox="0 0 67 61" fill="none" xmlns="http://www.w3.org/2000/svg">
<path fill-rule="evenodd" clip-rule="evenodd" d="M30.1274 1.45681C31.7623 1.12431 33.9882 0.785645 36.3034 0.785645C52.8706 0.785645 66.3024 14.2001 66.3024 30.7515V30.7546H65.0709L66.3024 30.7454V30.7515C66.3116 31.8753 66.1331 33.9381 65.7729 35.9023C65.5943 36.8875 65.3634 37.885 65.074 38.7471C64.8 39.5599 64.4182 40.4312 63.8486 41.0008C63.3653 41.4811 62.5863 41.4811 62.1061 40.9977C61.6258 40.5174 61.6258 39.7354 62.1061 39.2552C62.2477 39.1135 62.4848 38.7164 62.7372 37.9621C62.9774 37.254 63.1806 36.3827 63.3499 35.4591C63.6855 33.6087 63.8456 31.6999 63.8394 30.7609V30.7548C63.8394 15.5669 51.5118 3.2495 36.3026 3.2495C34.2091 3.2495 32.1586 3.55737 30.6193 3.87141C29.8527 4.02842 29.2215 4.18236 28.7813 4.29936C28.5627 4.35785 28.3934 4.40403 28.2794 4.4379C28.224 4.45329 28.1809 4.46561 28.1532 4.47484L28.1255 4.48408H28.1193L27.7499 3.30799L27.3866 2.13189H27.3897L27.402 2.12573L27.4451 2.11342C27.479 2.10418 27.5313 2.08879 27.596 2.07032C27.7253 2.03337 27.9131 1.97795 28.1532 1.91638C28.6273 1.79015 29.3077 1.6239 30.1267 1.45765L30.1274 1.45681ZM27.3873 2.13106C27.3873 2.13106 27.3842 2.13106 27.7506 3.30715L28.1201 4.48325L28.117 4.48633C26.8608 4.87425 25.8541 5.28678 25.2045 5.57927C24.5826 5.85944 23.853 5.58543 23.5728 4.96352C23.2926 4.34469 23.5697 3.61505 24.1885 3.33486C24.9151 3.00543 26.0203 2.55281 27.3873 2.13106ZM9.22257 21.0438C9.86604 21.2624 10.2139 21.9613 9.99534 22.6047C9.25952 24.7845 8.76691 27.5523 8.76691 30.7543C8.76691 45.939 21.0882 58.2509 36.2911 58.2572C36.8052 58.2449 37.3502 58.2664 37.8797 58.288C38.0891 58.2972 38.2953 58.3034 38.4955 58.3095C39.2405 58.3311 40.0287 58.3311 40.9369 58.2295C42.7411 58.0294 45.124 57.426 48.5723 55.7049C49.1788 55.4001 49.9207 55.6495 50.2225 56.256C50.5273 56.8656 50.281 57.6045 49.6714 57.9094C46.0139 59.7381 43.3538 60.4431 41.2081 60.6802C40.1429 60.7972 39.2285 60.7972 38.425 60.7726C38.1633 60.7664 37.9231 60.7572 37.6953 60.748C37.1996 60.7295 36.7747 60.711 36.3345 60.7233H36.3037C19.7365 60.7233 6.30469 47.3065 6.30469 30.7551C6.30469 27.3069 6.83115 24.2712 7.66245 21.8173C7.87797 21.1739 8.57995 20.826 9.22341 21.0446L9.22257 21.0438Z" fill="#042E26"/>
<path fill-rule="evenodd" clip-rule="evenodd" d="M9.74339 18.1619C10.0636 18.2388 10.3407 18.442 10.5069 18.7253L15.6884 27.395C16.0363 27.98 15.8455 28.7343 15.2636 29.0853C14.6786 29.4332 13.9213 29.2423 13.5734 28.6573L9.03222 21.059L1.87414 25.4462C1.29533 25.8002 0.537969 25.6186 0.180853 25.0367C-0.173204 24.4579 0.00844337 23.7005 0.587245 23.3434L8.80777 18.3066C9.08794 18.1342 9.42628 18.0818 9.74339 18.1619Z" fill="#042E26"/>
<path fill-rule="evenodd" clip-rule="evenodd" d="M25.8446 17.4352C24.6747 17.4352 23.7418 18.3742 23.7418 19.5133V42.0587C23.7418 43.1947 24.6747 44.1337 25.8446 44.1337H43.397C44.0774 44.1337 44.6285 44.6848 44.6285 45.3652C44.6285 46.0456 44.0774 46.5967 43.397 46.5967H25.8446C23.3324 46.5967 21.2788 44.574 21.2788 42.0587V19.5133C21.2788 16.998 23.3324 14.9722 25.8446 14.9722H45.9766C48.4889 14.9722 50.5394 16.998 50.5394 19.5133V37.2808C50.5394 37.9612 49.9883 38.5123 49.3079 38.5123C48.6275 38.5123 48.0764 37.9612 48.0764 37.2808V19.5133C48.0764 18.3742 47.1435 17.4352 45.9766 17.4352H25.8446Z" fill="#042E26"/>
<path fill-rule="evenodd" clip-rule="evenodd" d="M29.1611 30.3909C29.1611 29.7105 29.7122 29.1594 30.3926 29.1594H43.0032C43.6836 29.1594 44.2347 29.7105 44.2347 30.3909C44.2347 31.0713 43.6836 31.6224 43.0032 31.6224H30.3926C29.7122 31.6224 29.1611 31.0713 29.1611 30.3909Z" fill="#042E26"/>
<path fill-rule="evenodd" clip-rule="evenodd" d="M29.1611 37.4844C29.1611 36.804 29.7122 36.2529 30.3926 36.2529H39.0624C39.7428 36.2529 40.2939 36.804 40.2939 37.4844C40.2939 38.1648 39.7428 38.7159 39.0624 38.7159H30.3926C29.7122 38.7159 29.1611 38.1648 29.1611 37.4844Z" fill="#042E26"/>
<path fill-rule="evenodd" clip-rule="evenodd" d="M29.1611 24.0858C29.1611 23.4053 29.7122 22.8542 30.3926 22.8542H43.0032C43.6836 22.8542 44.2347 23.4053 44.2347 24.0858C44.2347 24.7662 43.6836 25.3173 43.0032 25.3173H30.3926C29.7122 25.3173 29.1611 24.7662 29.1611 24.0858Z" fill="#042E26"/>
<path fill-rule="evenodd" clip-rule="evenodd" d="M64.2833 47.3364C64.2833 41.8223 59.9761 37.4844 54.8253 37.4844C49.6746 37.4844 45.3674 41.8223 45.3674 47.3364C45.3674 52.8504 49.6746 57.1884 54.8253 57.1884C59.9761 57.1884 64.2833 52.8504 64.2833 47.3364ZM66.6478 47.3364C66.6478 40.5908 61.3554 35.1199 54.8253 35.1199C48.2984 35.1199 43.0029 40.5908 43.0029 47.3364C43.0029 54.085 48.2984 59.5529 54.8253 59.5529C61.3554 59.5529 66.6478 54.085 66.6478 47.3364Z" fill="#042E26"/>
<path fill-rule="evenodd" clip-rule="evenodd" d="M54.8253 40.1941C55.5057 40.1941 56.0568 40.7452 56.0568 41.4256V53.248C56.0568 53.9284 55.5057 54.4795 54.8253 54.4795C54.1448 54.4795 53.5938 53.9284 53.5938 53.248V41.4256C53.5938 40.7452 54.1448 40.1941 54.8253 40.1941Z" fill="#042E26"/>
<path fill-rule="evenodd" clip-rule="evenodd" d="M47.2891 46.9424C47.2891 46.262 47.8402 45.7109 48.5206 45.7109H60.343C61.0234 45.7109 61.5745 46.262 61.5745 46.9424C61.5745 47.6228 61.0234 48.1739 60.343 48.1739H48.5206C47.8402 48.1739 47.2891 47.6228 47.2891 46.9424Z" fill="#042E26"/>
</svg>
