<svg width="93" height="51" viewBox="0 0 93 51" fill="none" xmlns="http://www.w3.org/2000/svg">
<path d="M90.7292 24.5989L85.6545 18.124C83.8951 15.8779 81.1463 14.5414 78.2979 14.5414H70.0875V6.21535C70.0875 3.22321 67.6539 0.785645 64.6578 0.785645H24.9379C21.9457 0.785645 19.5082 3.21923 19.5082 6.21535V7.52794H9.49849C8.83623 7.52794 8.29763 8.06652 8.29763 8.7288C8.29763 9.39106 8.83621 9.92966 9.49849 9.92966H31.8836C32.5459 9.92966 33.0845 9.39108 33.0845 8.7288C33.0845 8.06654 32.5459 7.52794 31.8836 7.52794H21.9099V6.21535C21.9099 4.54377 23.2703 3.18736 24.9379 3.18736H64.6578C66.3293 3.18736 67.6857 4.54775 67.6857 6.21535V36.0765L21.9105 36.0725V31.7279H28.1221C28.7844 31.7279 29.323 31.1894 29.323 30.5271C29.323 29.8648 28.7844 29.3262 28.1221 29.3262L5.73699 29.3302C5.07473 29.3302 4.53613 29.8688 4.53613 30.5311C4.53613 31.1933 5.07471 31.7319 5.73699 31.7319H19.5084V42.0646C19.5084 44.554 21.5351 46.5807 24.0245 46.5807H27.0566C27.6032 48.9864 29.7575 50.7856 32.3268 50.7856C34.892 50.7856 37.0503 48.9864 37.597 46.5807H74.9351C75.4817 48.9864 77.636 50.7856 80.2053 50.7856C82.7705 50.7856 84.9289 48.9864 85.4755 46.5807H88.2043C90.6938 46.5807 92.7205 44.554 92.7205 42.0646V30.3593C92.7165 28.193 92.0657 26.3063 90.7292 24.5989ZM90.3143 30.3637V30.7427L80.3485 30.7387C78.3179 30.7387 77.2009 29.6216 77.2009 27.591L77.1969 22.4405H85.9858L88.8343 26.0789C89.8437 27.3675 90.3143 28.728 90.3143 30.3637ZM78.2975 16.9385C80.416 16.9385 82.4586 17.9359 83.7672 19.6035L84.1103 20.0424H70.0907V16.9425L78.2975 16.9385ZM21.9098 42.0649V38.4743H67.6892V44.1793H37.5921C37.0455 41.7776 34.8912 39.9743 32.3219 39.9743C29.7567 39.9743 27.5983 41.7736 27.0517 44.1793H24.0197C22.8548 44.1793 21.9098 43.2298 21.9098 42.0649ZM32.3262 48.3842C30.6706 48.3842 29.3221 47.0358 29.3221 45.3801C29.3221 43.7245 30.6706 42.3761 32.3262 42.3761C33.9819 42.3761 35.3303 43.7245 35.3303 45.3801C35.3263 47.0358 33.9819 48.3842 32.3262 48.3842ZM80.2002 48.3842C78.5446 48.3842 77.1962 47.0358 77.1962 45.3801C77.1962 43.7245 78.5446 42.3761 80.2002 42.3761C81.8559 42.3761 83.2043 43.7245 83.2043 45.3801C83.2043 47.0358 81.8559 48.3842 80.2002 48.3842ZM88.1992 44.1793H85.4703C84.9238 41.7776 82.7695 39.9743 80.2001 39.9743C77.6349 39.9743 75.4766 41.7736 74.93 44.1793H70.0867V22.4406H74.7943V27.5911C74.7943 29.2269 75.309 30.6151 76.2864 31.6046C77.2758 32.6099 78.6801 33.1405 80.3438 33.1405H90.3095V42.0651C90.3135 43.23 89.3641 44.1793 88.1992 44.1793Z" fill="#042E26"/>
<path d="M21.5513 15.9972C21.5513 15.335 21.0128 14.7964 20.3505 14.7964H1.20086C0.5386 14.7964 0 15.335 0 15.9972C0 16.6595 0.538579 17.1981 1.20086 17.1981H20.3505C21.0127 17.1941 21.5513 16.6595 21.5513 15.9972Z" fill="#042E26"/>
<path d="M14.2228 23.2614C14.2228 23.9237 14.7613 24.4623 15.4236 24.4623H36.7793C37.4415 24.4623 37.9801 23.9237 37.9801 23.2614C37.9801 22.5991 37.4415 22.0605 36.7793 22.0605L15.4195 22.0645C14.7573 22.0645 14.2228 22.5991 14.2228 23.2614Z" fill="#042E26"/>
</svg>
