<svg width="16" height="16" viewBox="0 0 16 16" fill="none" xmlns="http://www.w3.org/2000/svg">
<path d="M11.7423 0.53418H3.9194C1.7582 0.53418 0 2.29289 0 4.45474V11.6136C0 13.7755 1.7582 15.5342 3.9194 15.5342H11.7423C13.9035 15.5342 15.6617 13.7755 15.6617 11.6136V4.45474C15.6617 2.29289 13.9035 0.53418 11.7423 0.53418ZM1.38264 4.45474C1.38264 3.05574 2.52082 1.91722 3.9194 1.91722H11.7423C13.1409 1.91722 14.279 3.05574 14.279 4.45474V11.6136C14.279 13.0126 13.1409 14.1511 11.7423 14.1511H3.9194C2.52082 14.1511 1.38264 13.0126 1.38264 11.6136V4.45474Z" fill="white"/>
<path d="M7.83126 11.6808C9.84101 11.6808 11.477 10.0452 11.477 8.03398C11.477 6.02276 9.84189 4.38721 7.83126 4.38721C5.82063 4.38721 4.18555 6.02276 4.18555 8.03398C4.18555 10.0452 5.82063 11.6808 7.83126 11.6808ZM7.83126 5.77113C9.07927 5.77113 10.0943 6.78649 10.0943 8.03487C10.0943 9.28325 9.07927 10.2986 7.83126 10.2986C6.58325 10.2986 5.56819 9.28325 5.56819 8.03487C5.56819 6.78649 6.58325 5.77113 7.83126 5.77113Z" fill="white"/>
<path d="M11.8143 4.97589C12.3555 4.97589 12.7966 4.53556 12.7966 3.99333C12.7966 3.45109 12.3564 3.01074 11.8143 3.01074C11.2722 3.01074 10.832 3.45109 10.832 3.99333C10.832 4.53556 11.2722 4.97589 11.8143 4.97589Z" fill="white"/>
</svg>
