<svg width="263" height="59" viewBox="0 0 263 59" fill="none" xmlns="http://www.w3.org/2000/svg">
<g clip-path="url(#clip0_6_124)">
<path d="M48.6386 22.6455V44.757H22.1113V53.5967H30.9511C45.6027 53.5967 57.4783 41.7211 57.4783 27.0694V22.6455H48.6386Z" fill="#36D487"/>
<path d="M35.3751 0.53418H26.5354C11.8756 0.53418 0 12.4098 0 27.0615V31.4854H8.84784V9.3739H35.3751V0.53418Z" fill="#36D487"/>
<path d="M35.3752 20.4301H48.6389V11.5903H35.3752V20.4301ZM22.1116 31.4858H35.3752V22.6461H22.1116V31.4858ZM8.83984 42.5415H22.1035V33.7018H8.83984V42.5415Z" fill="#36D487"/>
<path d="M97.8213 27.735C96.3683 26.834 94.6962 26.0709 92.8211 25.4459C91.1651 24.8939 89.6553 24.3988 88.2916 23.9523C86.9279 23.514 85.7428 23.0188 84.7281 22.4912C83.7135 21.9555 82.9423 21.3061 82.4066 20.5268C81.8708 19.7557 81.603 18.741 81.603 17.4828C81.603 16.1597 81.9033 15.0314 82.5121 14.1142C83.1209 13.1969 83.9651 12.4826 85.0528 11.9874C86.1405 11.4923 87.3825 11.2569 88.7868 11.2975C90.4833 11.2975 91.8876 11.6384 93.0159 12.3203C94.1361 13.0021 94.9803 13.8625 95.5322 14.8934C96.0842 15.9243 96.3602 16.9715 96.3602 18.0429H101.222C101.222 15.9406 100.703 14.0898 99.6721 12.4907C98.6412 10.8916 97.2125 9.62532 95.3861 8.70806C93.5597 7.79081 91.4168 7.32812 88.9491 7.32812C86.4815 7.32812 84.2817 7.78269 82.4553 8.68371C80.6289 9.58473 79.2327 10.8267 78.2505 12.4177C77.2765 14.0005 76.7894 15.8432 76.7894 17.9455C76.7894 20.4132 77.5037 22.4182 78.9405 23.9686C80.3773 25.519 82.6258 26.8096 85.686 27.8405C87.2688 28.36 88.7868 28.847 90.2479 29.3016C91.7009 29.7643 92.9834 30.2919 94.0874 30.8764C95.1913 31.4689 96.068 32.232 96.7092 33.1736C97.3505 34.1152 97.6752 35.3409 97.6752 36.8507C97.6752 38.1008 97.3505 39.2291 96.7092 40.2194C96.068 41.2178 95.1264 41.997 93.8925 42.5653C92.6587 43.1335 91.1733 43.4257 89.4443 43.4257C87.4555 43.4257 85.7834 43.0442 84.444 42.2893C83.0966 41.5344 82.0738 40.5197 81.3757 39.2453C80.6776 37.9709 80.3286 36.5828 80.3286 35.073H75.4663C75.4663 37.5082 76.0345 39.643 77.1791 41.4857C78.3236 43.3283 79.9389 44.765 82.0413 45.7959C84.1437 46.8268 86.6113 47.3463 89.4443 47.3463C92.2772 47.3463 94.7692 46.8268 96.6849 45.7959C98.6006 44.765 100.045 43.4257 101.028 41.786C102.002 40.1463 102.489 38.4092 102.489 36.5666C102.489 34.3912 102.075 32.6054 101.247 31.2092C100.419 29.8049 99.2743 28.6603 97.8213 27.7512" fill="white"/>
<path d="M112.814 12.0693H108.78L108.171 18.8148H103.309V22.7436H108.171V38.2719C108.171 40.3743 108.496 42.0384 109.137 43.2722C109.778 44.506 110.712 45.3827 111.929 45.8941C113.147 46.4136 114.584 46.6652 116.239 46.6652H120.55V42.6877H117.563C115.793 42.6877 114.559 42.3874 113.861 41.7786C113.163 41.1698 112.814 40.0009 112.814 38.2719V22.7436H120.883V18.8148H112.814V12.0693Z" fill="white"/>
<path d="M142.596 38.5959C141.744 40.1787 140.64 41.372 139.276 42.1594C137.912 42.9549 136.435 43.3445 134.852 43.3445C133.269 43.3445 131.8 42.9467 130.461 42.1594C129.113 41.3639 128.026 40.1787 127.198 38.5959C126.37 37.013 125.956 35.0567 125.956 32.7352C125.956 30.4137 126.37 28.4168 127.198 26.8502C128.026 25.2835 129.129 24.1065 130.509 23.311C131.889 22.5155 133.375 22.1259 134.958 22.1259C136.541 22.1259 138.01 22.5237 139.349 23.311C140.697 24.1065 141.784 25.2835 142.612 26.8502C143.44 28.4168 143.854 30.3812 143.854 32.7352C143.854 35.0892 143.432 37.013 142.58 38.5959M141.955 19.9424C139.909 18.7491 137.58 18.1484 134.966 18.1484C132.352 18.1484 129.998 18.7491 127.92 19.9424C125.834 21.1437 124.194 22.8321 123.001 25.0238C121.8 27.2154 121.207 29.8049 121.207 32.792C121.207 35.7792 121.791 38.2549 122.977 40.4466C124.154 42.6383 125.777 44.3348 127.839 45.528C129.901 46.7213 132.238 47.322 134.86 47.322C137.482 47.322 139.812 46.7213 141.882 45.528C143.944 44.3348 145.583 42.6383 146.801 40.4466C148.018 38.2549 148.627 35.6818 148.627 32.7352C148.627 29.7886 148.027 27.1749 146.833 24.9994C145.632 22.824 144.017 21.1437 141.971 19.9424" fill="white"/>
<path d="M159.886 23.3191C161.25 22.5237 162.719 22.134 164.31 22.134C166.258 22.134 167.955 22.6129 169.392 23.5708C170.828 24.5286 171.729 25.8761 172.103 27.6051H176.86C176.267 24.7316 174.871 22.4344 172.663 20.7216C170.455 19.0089 167.687 18.1484 164.375 18.1484C161.761 18.1484 159.407 18.7572 157.329 19.9748C155.243 21.1924 153.62 22.897 152.435 25.0887C151.258 27.2804 150.665 29.8536 150.665 32.8001C150.665 35.7467 151.258 38.2062 152.435 40.3979C153.612 42.5896 155.243 44.2942 157.329 45.5118C159.407 46.7294 161.761 47.3382 164.375 47.3382C167.655 47.3382 170.406 46.4615 172.639 44.7163C174.871 42.963 176.275 40.6901 176.868 37.8897H172.111C171.851 39.0342 171.356 40.0164 170.617 40.8444C169.879 41.6723 168.97 42.3055 167.882 42.7519C166.794 43.1984 165.609 43.4175 164.318 43.4175C163.141 43.4175 162.005 43.1903 160.917 42.7276C159.829 42.2649 158.88 41.5912 158.068 40.7064C157.256 39.8216 156.615 38.7095 156.136 37.362C155.657 36.0146 155.414 34.4804 155.414 32.7514C155.414 30.3974 155.82 28.433 156.631 26.8664C157.443 25.2998 158.531 24.1228 159.894 23.3273" fill="white"/>
<path d="M200.959 18.8141H195.269L183.938 30.6085V6.87354H179.294V46.6645H183.938V32.305L196.43 46.6645H202.339L188.662 31.4527L200.959 18.8141Z" fill="white"/>
<path d="M234.582 6.87354H229.938V46.6645H234.582V6.87354Z" fill="white"/>
<path d="M241.286 30.1945C241.424 28.6847 241.806 27.3859 242.439 26.2982C243.251 24.9183 244.33 23.8711 245.67 23.1487C247.017 22.4344 248.478 22.0691 250.061 22.0691C252.415 22.0691 254.379 22.7834 255.946 24.2202C257.513 25.6569 258.349 27.6457 258.462 30.1864H241.278L241.286 30.1945ZM261.482 24.7559C260.467 22.7834 259.014 21.1924 257.115 19.9748C255.216 18.7572 252.902 18.1484 250.183 18.1484C247.464 18.1484 245.183 18.7572 243.137 19.9748C241.091 21.1924 239.509 22.8889 238.38 25.0562C237.252 27.2317 236.692 29.7886 236.692 32.7352C236.692 35.6818 237.26 38.1981 238.405 40.3898C239.549 42.5815 241.124 44.2861 243.129 45.5037C245.134 46.7213 247.447 47.3301 250.061 47.3301C252.236 47.3301 254.144 46.9486 255.784 46.1937C257.423 45.4387 258.795 44.3997 259.899 43.0685C261.003 41.7373 261.782 40.2518 262.221 38.5959H257.635C257.083 40.0732 256.173 41.2421 254.899 42.1025C253.625 42.9711 252.017 43.4013 250.061 43.4013C248.511 43.4013 247.066 43.0117 245.718 42.2405C244.371 41.4694 243.283 40.3086 242.455 38.7582C241.725 37.3864 241.311 35.7305 241.229 33.7823H262.935C262.968 33.2628 262.992 32.8083 262.992 32.4024V31.2416C262.992 28.8876 262.489 26.7203 261.474 24.7478" fill="white"/>
<path d="M214.012 40.8202L206.487 18.8548L201.568 18.7817L210.668 44.7652L212.299 44.6678L205.992 58.7918H210.855L228.656 18.7817H223.842L214.012 40.8202Z" fill="white"/>
</g>
<defs>
<clipPath id="clip0_6_124">
<rect width="263" height="58.2577" fill="white" transform="translate(0 0.53418)"/>
</clipPath>
</defs>
</svg>
