<svg width="12" height="16" viewBox="0 0 12 16" fill="none" xmlns="http://www.w3.org/2000/svg">
<path fill-rule="evenodd" clip-rule="evenodd" d="M4.85484 10.319C4.84243 10.3621 4.83077 10.3985 4.82128 10.435C4.27054 12.5934 4.20926 13.0728 3.6432 14.0754C3.3733 14.5519 3.06911 15.0035 2.73283 15.4355C2.6949 15.4844 2.65915 15.5472 2.58329 15.5318C2.50013 15.5143 2.49356 15.4392 2.48481 15.3728C2.39436 14.7168 2.34402 14.0593 2.36591 13.3968C2.39436 12.5343 2.50086 12.2381 3.61256 7.56229C3.62861 7.49078 3.61037 7.43168 3.58703 7.36747C3.32077 6.64947 3.26825 5.92051 3.50095 5.18208C4.00428 3.587 5.81189 3.46515 6.12775 4.78076C6.32252 5.59435 5.80752 6.65967 5.41215 8.23432C5.08462 9.53315 6.61357 10.4569 7.92004 9.50833C9.12511 8.63418 9.5927 6.53855 9.50371 5.05292C9.32864 2.09116 6.08179 1.45123 4.02252 2.40492C1.66125 3.49725 1.12436 6.42472 2.19084 7.76295C2.32579 7.93296 2.58037 8.0373 2.53587 8.2095C2.4673 8.47729 2.40676 8.74728 2.33235 9.01361C2.27691 9.21208 1.96106 9.28433 1.76045 9.2026C1.36727 9.04353 1.03974 8.79324 0.774219 8.46343C-0.131045 7.34191 -0.390004 5.1237 0.807045 3.24551C2.13321 1.1652 4.60025 0.323147 6.85284 0.578534C9.5431 0.884269 11.2435 2.72306 11.5615 4.80921C11.7067 5.75925 11.6024 8.10224 10.2689 9.75861C8.73485 11.6616 6.24811 11.7878 5.10066 10.6196C5.0124 10.5299 4.94164 10.4255 4.85484 10.3183V10.319Z" fill="white"/>
</svg>
