<svg width="38" height="40" viewBox="0 0 83 82" fill="none" xmlns="http://www.w3.org/2000/svg">
<path d="M14.4613 56.1164C22.8597 66.3074 33.0393 74.0074 44.7233 78.9954C48.985 80.8157 52.9928 81.7649 56.9933 81.9251C57.2316 81.9251 57.4621 81.9368 57.6925 81.9368C61.4034 81.9368 64.4933 80.7649 66.8722 78.4485C68.8722 76.4993 70.8527 74.4797 72.7511 72.5266L73.0011 72.2649C74.423 70.804 75.2628 69.1438 75.4894 67.3157C75.8293 64.6946 74.9386 62.2845 72.841 60.1751C70.6691 57.9837 68.4816 55.804 66.2902 53.636C66.009 53.3548 65.7395 53.0774 65.4621 52.7962C64.6223 51.9368 63.7512 51.0579 62.7629 50.2376C59.5832 47.597 55.4348 47.6282 52.2119 50.3079C51.7314 50.7063 51.3018 51.136 50.9307 51.5071L50.8018 51.636C49.3604 53.0774 47.9229 54.5266 46.4815 55.9641C46.3604 55.9055 46.251 55.843 46.1299 55.7844C45.1182 55.2649 44.1611 54.7727 43.2783 54.2141C38.4971 51.1555 34.0595 47.0032 29.7083 41.5341C28.0677 39.4755 26.8099 37.495 25.8802 35.5029L26.8997 34.4912C28.2708 33.1396 29.6809 31.7412 31.0481 30.331C34.5598 26.7021 34.5598 22.0224 31.0481 18.421C28.6262 15.9327 26.1262 13.4522 23.72 11.0499L21.6184 8.9601C20.5286 7.8703 19.2668 7.1203 17.8879 6.7218C15.8176 6.12024 12.7082 6.03039 9.66914 8.9718C8.95039 9.67102 8.24724 10.382 7.54024 11.1007C6.48164 12.1788 5.48164 13.2023 4.41914 14.1593C1.38794 16.9093 -0.131658 20.3585 0.00894172 24.1476C0.00894172 27.4171 0.528472 30.3781 1.66914 33.7374C4.30974 41.5382 8.48944 48.8394 14.4501 56.0774L14.4613 56.1164ZM7.80111 17.8974C8.97301 16.8388 10.0628 15.7177 11.1292 14.6357C11.8011 13.9443 12.4808 13.2646 13.1683 12.5966C14.1097 11.6747 14.9066 11.4169 15.598 11.4169C15.9261 11.4169 16.2386 11.4755 16.5277 11.5653C17.098 11.7255 17.6175 12.0458 18.1058 12.5458L20.2074 14.6356C22.6058 17.0262 25.0863 19.4872 27.4886 21.9442C29.0667 23.5731 29.0667 25.2333 27.4691 26.8934C26.141 28.2645 24.7503 29.6434 23.4105 30.9715L22.0316 32.3426C20.4535 33.9129 20.2308 35.0809 21.141 37.1238C22.2699 39.6629 23.8011 42.1355 25.8323 44.6824C30.5315 50.5926 35.3715 55.0924 40.6214 58.4524C41.6995 59.1438 42.8128 59.7141 43.8831 60.261C44.344 60.4993 44.8049 60.7298 45.2542 60.972C46.0745 61.4134 47.6956 61.8938 49.4026 60.1712C51.0628 58.511 52.7112 56.8431 54.3714 55.1829L54.512 55.0423C54.8401 54.7141 55.1526 54.4016 55.4534 54.1516C56.4221 53.3509 57.9339 52.6828 59.6253 54.0813C60.4144 54.7298 61.1644 55.4915 61.9534 56.3001C62.2425 56.5892 62.5315 56.89 62.8245 57.179C65.0042 59.3392 67.1839 61.5071 69.344 63.6907C70.6057 64.9602 70.6721 65.9095 70.5823 66.6595C70.4807 67.3978 70.1213 68.0814 69.4729 68.7493L69.2229 69.0111C67.3323 70.9408 65.3948 72.9408 63.4338 74.8392C61.8752 76.3509 59.9026 76.9994 57.2229 76.8978C53.844 76.7688 50.4026 75.9368 46.7229 74.3666C35.7819 69.6947 26.2429 62.4756 18.3639 52.9056C12.7936 46.1439 8.90298 39.3546 6.46588 32.1436C5.50494 29.3038 5.07528 26.8233 5.07528 24.1045V24.0029C4.97372 21.6943 5.9034 19.624 7.84478 17.874L7.80111 17.8974Z" fill="#042E26"/>
<path d="M41.7904 0.0192356C40.4193 -0.152644 39.181 0.847355 39.0209 2.21844C38.8608 3.58952 39.849 4.82784 41.2201 4.98794C59.0011 7.01913 74.4001 21.9489 77.0481 39.6989C77.2278 40.9372 78.2981 41.8278 79.5169 41.8278C79.638 41.8278 79.7669 41.8278 79.888 41.7966C81.2591 41.5974 82.1966 40.3161 81.9896 38.9568C78.9701 18.7068 62.0676 2.32779 41.7786 0.0157852L41.7904 0.0192356Z" fill="#042E26"/>
<path d="M62.3724 39.7304C62.5521 40.9687 63.6224 41.8593 64.8412 41.8593C64.9623 41.8593 65.0912 41.8593 65.2123 41.8281C66.5834 41.6288 67.5209 40.3593 67.3139 38.9883C65.392 26.0783 54.4739 15.5473 41.9159 14.5003C40.537 14.3792 39.3378 15.4104 39.2167 16.7815C39.0956 18.1604 40.1269 19.3596 41.4979 19.4807C50.3885 20.2189 60.6269 28.0002 62.3769 39.7187L62.3724 39.7304Z" fill="#042E26"/>
</svg>
