<svg width="38" height="40" viewBox="0 0 38 40" fill="none" xmlns="http://www.w3.org/2000/svg">
<path fill-rule="evenodd" clip-rule="evenodd" d="M34.2837 38.3493L20.9704 26.606C19.626 25.4214 17.6112 25.4214 16.2668 26.606L2.95348 38.3493H34.2837ZM11.4188 20.6085C10.988 20.5772 10.6528 20.216 10.6528 19.7835C10.6528 19.3509 10.988 18.9897 11.4188 18.9584H25.818C26.2487 18.9897 26.584 19.3509 26.584 19.7835C26.584 20.216 26.2488 20.5772 25.818 20.6085H11.4188ZM9.60024 15.4986C9.16948 15.4673 8.83424 15.1077 8.83424 14.6752C8.83424 14.241 9.16946 13.8814 9.60024 13.8502H27.6363C28.067 13.8814 28.4023 14.241 28.4023 14.6752C28.4023 15.1077 28.067 15.4672 27.6363 15.4986H9.60024ZM9.60024 10.3904C9.16948 10.3591 8.83424 9.99957 8.83424 9.56532C8.83424 9.13283 9.16946 8.77153 9.60024 8.74027H27.6363C28.067 8.77153 28.4023 9.13281 28.4023 9.56532C28.4023 9.99955 28.067 10.3591 27.6363 10.3904H9.60024ZM32.2775 12.5025V17.5933L35.1626 15.0504L32.2775 12.5025ZM15.0037 3.63565H22.2328L20.9701 2.51881V2.52055C19.6257 1.33595 17.6109 1.33595 16.2666 2.52055L15.0038 3.63739L15.0037 3.63565ZM4.95361 10.3054V4.45915C4.95361 4.00409 5.32184 3.63583 5.77693 3.63583H12.5214L15.1894 1.29273C17.1556 -0.438973 20.105 -0.430302 22.0588 1.31531L24.7267 3.65841H31.4592C31.9143 3.65841 32.2825 4.02663 32.2825 4.48173V10.3107L36.9029 14.3838C37.1131 14.5401 37.2364 14.7885 37.2364 15.0508V38.0442C37.2329 39.1229 36.3592 39.9983 35.2789 40H1.9575C0.877123 39.9983 0.00346829 39.1228 0 38.0442V15.0508C0 14.7885 0.12332 14.5401 0.33349 14.3838L4.95388 10.3107L4.95361 10.3054ZM4.95361 17.5884V12.5025L2.06857 15.0506L4.95361 17.5934V17.5884ZM5.27842 20.0792L13.2337 27.1052L1.67273 37.3322V16.8781L5.2039 19.9907H5.20216C5.23516 20.0254 5.27164 20.0567 5.30985 20.0845L5.27842 20.0792ZM30.6237 19.0475L22.7622 25.9987L22.0605 25.3769L22.0587 25.3752C20.0977 23.6296 17.1382 23.6296 15.1768 25.3752L14.4751 25.997L6.61189 19.0475V5.26326H30.6232L30.6237 19.0475ZM32.0549 19.9906L35.5861 16.878V37.3321L24.0251 27.1051L31.9577 20.0791C31.9924 20.053 32.0254 20.0236 32.0549 19.9906Z" fill="#042E26"/>
</svg>
