<svg width="38" height="40" viewBox="0 0 54 74" fill="none" xmlns="http://www.w3.org/2000/svg">
<path d="M53.2338 26.6169C53.2338 19.5075 50.4643 12.8239 45.4369 7.7969C40.4096 2.7696 33.7259 0 26.6169 0C19.5079 0 12.8239 2.7695 7.7969 7.7969C2.7696 12.8242 0 19.5079 0 26.6169C0 33.7259 2.7695 40.4099 7.7969 45.4369L13.3516 50.9916C6.2383 53.1908 1.9536 57.0658 1.9536 61.4956C1.9536 65.0854 4.7192 68.3315 9.7427 70.6362C14.2818 72.7182 20.2737 73.8667 26.6177 73.8667C32.9575 73.8667 38.9537 72.7183 43.4927 70.6362C48.5161 68.3315 51.2818 65.0854 51.2818 61.4956C51.2818 57.0659 46.9966 53.1909 39.8838 50.9916L45.4385 45.4369C50.4658 40.4096 53.2354 33.7259 53.2354 26.6169H53.2338ZM47.3744 61.4959C47.3744 65.4998 38.851 69.9607 26.6164 69.9607C14.3818 69.9607 5.8584 65.4998 5.8584 61.4959C5.8584 58.6443 10.1943 55.699 16.5264 54.1678L25.2334 62.8748C25.6162 63.2576 26.1162 63.4451 26.6162 63.4451C27.1162 63.4451 27.6162 63.2537 27.999 62.8748L36.706 54.1678C43.038 55.699 47.3744 58.6444 47.3744 61.4959ZM34.7294 50.6209L26.6161 58.7342L10.5571 42.6752C6.268 38.3861 3.9048 32.683 3.9048 26.6162C3.9048 20.5494 6.2681 14.8462 10.5571 10.5572C14.8462 6.2681 20.5493 3.9049 26.6161 3.9049C32.6829 3.9049 38.3861 6.2682 42.6751 10.5572C46.9642 14.8463 49.3274 20.5494 49.3274 26.6162C49.3274 32.683 46.9641 38.3862 42.6751 42.6752L34.7294 50.6209Z" fill="#042E26"/>
<path d="M26.6171 11.7888C18.4413 11.7888 11.7891 18.4411 11.7891 26.6168C11.7891 34.7926 18.4414 41.4448 26.6171 41.4448C34.7928 41.4448 41.4451 34.7925 41.4451 26.6168C41.4451 18.441 34.7928 11.7888 26.6171 11.7888ZM26.6171 37.5388C20.5937 37.5388 15.6951 32.6404 15.6951 26.6168C15.6951 20.5934 20.5935 15.6948 26.6171 15.6948C32.6407 15.6948 37.5391 20.5932 37.5391 26.6168C37.5391 32.6402 32.6407 37.5388 26.6171 37.5388Z" fill="#042E26"/>
</svg>
