<svg width="91" height="74" viewBox="0 0 91 74" fill="none" xmlns="http://www.w3.org/2000/svg">
<path opacity="0.5" d="M68.3545 73.5342C74.8918 73.5342 80.1579 71.2643 84.153 66.7245C88.148 62.0031 90.1455 55.7382 90.1455 47.9297C90.1455 37.9421 87.24 28.5901 81.4291 19.8737C75.6181 11.1573 68.4453 4.7108 59.9104 0.53418L57.1866 5.16477C60.8184 8.07024 64.0871 11.6113 66.9925 15.7879C69.7164 19.9645 71.8955 25.0491 73.5298 31.0416L67.8097 32.676C61.9987 34.4919 57.4589 37.2158 54.1903 40.8476C50.74 44.4794 49.0149 48.9284 49.0149 54.1946C49.0149 60.0056 50.9216 64.7269 54.7351 68.3588C58.5485 71.809 63.0883 73.5342 68.3545 73.5342ZM19.8435 73.5342C26.3808 73.5342 31.6469 71.2643 35.642 66.7245C39.637 62.0031 41.6345 55.7382 41.6345 47.9297C41.6345 37.9421 38.729 28.5901 32.9181 19.8737C27.1071 11.1573 19.9342 4.7108 11.3994 0.53418L8.67554 5.16477C12.3074 8.07024 15.576 11.6113 18.4815 15.7879C21.2054 19.9645 23.3845 25.0491 25.0188 31.0416L19.2987 32.676C13.4877 34.4919 8.94792 37.2158 5.67927 40.8476C2.22902 44.4794 0.503891 48.9284 0.503891 54.1946C0.503891 60.0056 2.41062 64.7269 6.22405 68.3588C10.0375 71.809 14.5773 73.5342 19.8435 73.5342Z" fill="#36D487" fill-opacity="0.5"/>
</svg>
